solid OpenSCAD_Model
  facet normal 0.707254 0.706959 9.73215e-08
    outer loop
      vertex -31.163 -20.4417 24.998
      vertex -30.602 -21.003 14.898
      vertex -33.002 -18.602 14.898
    endloop
  endfacet
  facet normal 0 0.707107 -0.707107
    outer loop
      vertex -0.00199986 25.5 0
      vertex -4.497 28 2.5
      vertex -0.00199986 28 2.5
    endloop
  endfacet
  facet normal 0 0.707107 -0.707107
    outer loop
      vertex -4.497 28 2.5
      vertex -0.00199986 25.5 0
      vertex -4.497 25.5 0
    endloop
  endfacet
  facet normal 0.57735 -0.57735 0.57735
    outer loop
      vertex -30.602 24.602 12.498
      vertex -30.602 27.002 14.898
      vertex -33.002 24.602 14.898
    endloop
  endfacet
  facet normal 0.707107 -0 0.707107
    outer loop
      vertex -33.002 -18.602 14.898
      vertex -30.602 24.602 12.498
      vertex -33.002 24.602 14.898
    endloop
  endfacet
  facet normal 0.707107 0 0.707107
    outer loop
      vertex -30.602 24.602 12.498
      vertex -33.002 -18.602 14.898
      vertex -30.602 -18.602 12.498
    endloop
  endfacet
  facet normal 0.577431 0.57719 0.577431
    outer loop
      vertex -30.602 -21.003 14.898
      vertex -30.602 -18.602 12.498
      vertex -33.002 -18.602 14.898
    endloop
  endfacet
  facet normal -1 0 0
    outer loop
      vertex 15.003 24.602 14.898
      vertex 15.003 22.992 21.627
      vertex 15.003 24.602 24.998
    endloop
  endfacet
  facet normal -1 0 0
    outer loop
      vertex 15.003 24.602 14.898
      vertex 15.003 -16.989 21.627
      vertex 15.003 22.992 21.627
    endloop
  endfacet
  facet normal -1 0 0
    outer loop
      vertex 15.003 -18.602 24.998
      vertex 15.003 -16.989 21.627
      vertex 15.003 -18.602 14.898
    endloop
  endfacet
  facet normal -1 0 0
    outer loop
      vertex 15.003 -18.602 14.898
      vertex 15.003 -16.989 21.627
      vertex 15.003 24.602 14.898
    endloop
  endfacet
  facet normal -1 0 0
    outer loop
      vertex 15.003 22.992 24.721
      vertex 15.003 24.602 24.998
      vertex 15.003 22.992 21.627
    endloop
  endfacet
  facet normal -1 0 0
    outer loop
      vertex 15.003 -16.989 24.721
      vertex 15.003 24.602 24.998
      vertex 15.003 22.992 24.721
    endloop
  endfacet
  facet normal -1 0 0
    outer loop
      vertex 15.003 -16.989 24.721
      vertex 15.003 -18.602 24.998
      vertex 15.003 24.602 24.998
    endloop
  endfacet
  facet normal -1 0 0
    outer loop
      vertex 15.003 -16.989 21.627
      vertex 15.003 -18.602 24.998
      vertex 15.003 -16.989 24.721
    endloop
  endfacet
  facet normal 0 0 1
    outer loop
      vertex 14.252 -18.453 14.8
      vertex 14.905 -18.1 14.8
      vertex 14.252 -18.1 14.8
    endloop
  endfacet
  facet normal 0 0 1
    outer loop
      vertex 14.905 -18.1 14.8
      vertex 14.252 -18.453 14.8
      vertex 14.905 -18.602 14.8
    endloop
  endfacet
  facet normal 0 0 1
    outer loop
      vertex 14.252 -18.453 14.8
      vertex 12.603 -20.905 14.8
      vertex 14.905 -18.602 14.8
    endloop
  endfacet
  facet normal -0 0 1
    outer loop
      vertex 10 -18.453 14.8
      vertex 12.603 -20.905 14.8
      vertex 14.252 -18.453 14.8
    endloop
  endfacet
  facet normal 0 0 1
    outer loop
      vertex 12.603 -20.905 14.8
      vertex 10 -18.453 14.8
      vertex 10 -20.905 14.8
    endloop
  endfacet
  facet normal 0 0 1
    outer loop
      vertex 14.905 1.2 14.8
      vertex 14.252 0.252 14.8
      vertex 14.905 0.0999994 14.8
    endloop
  endfacet
  facet normal -0 0 1
    outer loop
      vertex 10 1.2 14.8
      vertex 14.252 0.252 14.8
      vertex 14.905 1.2 14.8
    endloop
  endfacet
  facet normal 0 0 1
    outer loop
      vertex 14.252 0.252 14.8
      vertex 10 1.2 14.8
      vertex 10 0.252 14.8
    endloop
  endfacet
  facet normal 0 0 1
    outer loop
      vertex 14.905 0.0999994 14.8
      vertex 14.252 0.252 14.8
      vertex 14.252 0.0999994 14.8
    endloop
  endfacet
  facet normal 0 -1 0
    outer loop
      vertex -4.497 23.203 3.598
      vertex -0.00199986 23.203 12.498
      vertex -4.497 23.203 12.498
    endloop
  endfacet
  facet normal 0 -1 -0
    outer loop
      vertex -0.00199986 23.203 12.498
      vertex -4.497 23.203 3.598
      vertex -0.00199986 23.203 3.598
    endloop
  endfacet
  facet normal 0 0 -1
    outer loop
      vertex 10.003 -19.5 0
      vertex 13.5 25.5 0
      vertex 13.5 -19.5 0
    endloop
  endfacet
  facet normal -0 0 -1
    outer loop
      vertex 13.5 25.5 0
      vertex 10.003 -19.5 0
      vertex 10.003 25.5 0
    endloop
  endfacet
  facet normal -3.79636e-07 0.70696 0.707254
    outer loop
      vertex 10 -20.905 14.8
      vertex 10 -19.257 13.1527
      vertex 9.313 -20.1076 14.003
    endloop
  endfacet
  facet normal 0 0.70696 0.707254
    outer loop
      vertex 10 -20.905 14.8
      vertex 9.313 -20.1076 14.003
      vertex 0.688 -20.1076 14.003
    endloop
  endfacet
  facet normal 0 -0.707106 0.707107
    outer loop
      vertex 12.603 24.602 12.498
      vertex 10.003 25.253 13.149
      vertex 10.003 24.602 12.498
    endloop
  endfacet
  facet normal 1.68036e-07 -0.707107 0.707107
    outer loop
      vertex 10.003 25.253 13.149
      vertex 12.603 27.002 14.898
      vertex 9.313 26.107 14.003
    endloop
  endfacet
  facet normal 0 0 -1
    outer loop
      vertex 0.688 -22 14.003
      vertex 9.313 -20.1076 14.003
      vertex 9.313 -22 14.003
    endloop
  endfacet
  facet normal -0 0 -1
    outer loop
      vertex 9.313 -20.1076 14.003
      vertex 0.688 -22 14.003
      vertex 0.688 -20.1076 14.003
    endloop
  endfacet
  facet normal -0.777838 0 -0.628465
    outer loop
      vertex 10.003 28 13.149
      vertex 9.313 26.107 14.003
      vertex 9.313 28 14.003
    endloop
  endfacet
  facet normal -0.777838 0 -0.628465
    outer loop
      vertex 9.313 26.107 14.003
      vertex 10.003 28 13.149
      vertex 10.003 25.253 13.149
    endloop
  endfacet
  facet normal 0 0 1
    outer loop
      vertex 12.603 24.602 12.498
      vertex 12.503 20.099 12.498
      vertex 12.603 1.2 12.498
    endloop
  endfacet
  facet normal -0 0 1
    outer loop
      vertex 10.003 24.602 12.498
      vertex 12.503 20.099 12.498
      vertex 12.603 24.602 12.498
    endloop
  endfacet
  facet normal 0 0 1
    outer loop
      vertex 12.503 20.099 12.498
      vertex 10.003 24.602 12.498
      vertex 10.003 20.099 12.498
    endloop
  endfacet
  facet normal -0 0 1
    outer loop
      vertex 12.503 5.823 12.498
      vertex 12.603 1.2 12.498
      vertex 12.503 20.099 12.498
    endloop
  endfacet
  facet normal 0 0 1
    outer loop
      vertex 10.003 1.2 12.498
      vertex 12.503 5.823 12.498
      vertex 10.003 5.823 12.498
    endloop
  endfacet
  facet normal 0 0 1
    outer loop
      vertex 12.503 5.823 12.498
      vertex 10.003 1.2 12.498
      vertex 12.603 1.2 12.498
    endloop
  endfacet
  facet normal -0.707107 0 -0.707107
    outer loop
      vertex 14.927 -16.989 21.551
      vertex 13.753 22.992 22.725
      vertex 14.927 22.992 21.551
    endloop
  endfacet
  facet normal -0.707107 -0 -0.707107
    outer loop
      vertex 13.753 22.992 22.725
      vertex 14.927 -16.989 21.551
      vertex 13.753 -16.989 22.725
    endloop
  endfacet
  facet normal 1 0 0
    outer loop
      vertex -0.00199986 -18.153 12.498
      vertex -0.00199986 -18.602 12.498
      vertex -0.00199986 -18.153 9.898
    endloop
  endfacet
  facet normal 1 0 0
    outer loop
      vertex -0.00199986 -13.451 9.898
      vertex -0.00199986 -18.153 9.898
      vertex -0.00199986 -13.451 7.498
    endloop
  endfacet
  facet normal 1 0 0
    outer loop
      vertex -0.00199986 -13.403 7.498
      vertex -0.00199986 -13.451 7.498
      vertex -0.00199986 -13.403 0.997999
    endloop
  endfacet
  facet normal 1 0 0
    outer loop
      vertex -0.00199986 0.151999 9.898
      vertex -0.00199986 2.698 12.498
      vertex -0.00199986 0.151999 12.498
    endloop
  endfacet
  facet normal 1 -0 0
    outer loop
      vertex -0.00199986 24.602 12.498
      vertex -0.00199986 28 2.5
      vertex -0.00199986 28 13.149
    endloop
  endfacet
  facet normal 1 0 0
    outer loop
      vertex -0.00199986 24.602 12.498
      vertex -0.00199986 28 13.149
      vertex -0.00199986 25.253 13.149
    endloop
  endfacet
  facet normal 1 0 0
    outer loop
      vertex -0.00199986 28 2.5
      vertex -0.00199986 24.602 12.498
      vertex -0.00199986 23.203 3.598
    endloop
  endfacet
  facet normal 1 0 0
    outer loop
      vertex -0.00199986 23.203 3.598
      vertex -0.00199986 24.602 12.498
      vertex -0.00199986 23.203 12.498
    endloop
  endfacet
  facet normal 1 0 0
    outer loop
      vertex -0.00199986 28 2.5
      vertex -0.00199986 23.203 3.598
      vertex -0.00199986 25.5 0
    endloop
  endfacet
  facet normal 1 -0 0
    outer loop
      vertex -0.00199986 2.698 3.598
      vertex -0.00199986 25.5 0
      vertex -0.00199986 23.203 3.598
    endloop
  endfacet
  facet normal 1 0 0
    outer loop
      vertex -0.00199986 2.698 12.498
      vertex -0.00199986 0.151999 9.898
      vertex -0.00199986 2.698 3.598
    endloop
  endfacet
  facet normal 1 0 0
    outer loop
      vertex -0.00199986 -4.449 7.498
      vertex -0.00199986 0.151999 9.898
      vertex -0.00199986 -4.449 9.898
    endloop
  endfacet
  facet normal 1 0 0
    outer loop
      vertex -0.00199986 0.151999 9.898
      vertex -0.00199986 -4.449 7.498
      vertex -0.00199986 2.698 3.598
    endloop
  endfacet
  facet normal 1 0 0
    outer loop
      vertex -0.00199986 -4.498 0.997999
      vertex -0.00199986 -4.449 7.498
      vertex -0.00199986 -4.498 7.498
    endloop
  endfacet
  facet normal 1 0 0
    outer loop
      vertex -0.00199986 -4.449 7.498
      vertex -0.00199986 -4.498 0.997999
      vertex -0.00199986 2.698 3.598
    endloop
  endfacet
  facet normal 1 -0 0
    outer loop
      vertex -0.00199986 -4.498 0.997999
      vertex -0.00199986 25.5 0
      vertex -0.00199986 2.698 3.598
    endloop
  endfacet
  facet normal 1 0 0
    outer loop
      vertex -0.00199986 -19.5 0
      vertex -0.00199986 -4.498 0.997999
      vertex -0.00199986 -13.403 0.997999
    endloop
  endfacet
  facet normal 1 0 0
    outer loop
      vertex -0.00199986 -22 2.5
      vertex -0.00199986 -13.451 7.498
      vertex -0.00199986 -18.153 9.898
    endloop
  endfacet
  facet normal 1 -0 0
    outer loop
      vertex -0.00199986 -22 13.149
      vertex -0.00199986 -18.602 12.498
      vertex -0.00199986 -19.2533 13.149
    endloop
  endfacet
  facet normal 1 0 0
    outer loop
      vertex -0.00199986 -4.498 0.997999
      vertex -0.00199986 -19.5 0
      vertex -0.00199986 25.5 0
    endloop
  endfacet
  facet normal 1 0 0
    outer loop
      vertex -0.00199986 -13.451 7.498
      vertex -0.00199986 -19.5 0
      vertex -0.00199986 -13.403 0.997999
    endloop
  endfacet
  facet normal 1 0 0
    outer loop
      vertex -0.00199986 -18.602 12.498
      vertex -0.00199986 -22 13.149
      vertex -0.00199986 -18.153 9.898
    endloop
  endfacet
  facet normal 1 0 0
    outer loop
      vertex -0.00199986 -18.153 9.898
      vertex -0.00199986 -22 13.149
      vertex -0.00199986 -22 2.5
    endloop
  endfacet
  facet normal 1 0 0
    outer loop
      vertex -0.00199986 -13.451 7.498
      vertex -0.00199986 -22 2.5
      vertex -0.00199986 -19.5 0
    endloop
  endfacet
  facet normal 0 -1 0
    outer loop
      vertex 13.753 -16.989 23.623
      vertex 15.003 -16.989 24.721
      vertex 14.927 -16.989 24.797
    endloop
  endfacet
  facet normal 0 -1 0
    outer loop
      vertex 13.753 -16.989 22.725
      vertex 15.003 -16.989 24.721
      vertex 13.753 -16.989 23.623
    endloop
  endfacet
  facet normal 0 -1 0
    outer loop
      vertex 13.753 -16.989 22.725
      vertex 15.003 -16.989 21.627
      vertex 15.003 -16.989 24.721
    endloop
  endfacet
  facet normal -0 -1 0
    outer loop
      vertex 15.003 -16.989 21.627
      vertex 13.753 -16.989 22.725
      vertex 14.927 -16.989 21.551
    endloop
  endfacet
  facet normal 0 -1 0
    outer loop
      vertex 10.003 20.099 9.599
      vertex 12.503 20.099 12.498
      vertex 10.003 20.099 12.498
    endloop
  endfacet
  facet normal 0 -1 -0
    outer loop
      vertex 12.503 20.099 12.498
      vertex 10.003 20.099 9.599
      vertex 12.503 20.099 9.599
    endloop
  endfacet
  facet normal -0.777838 0 -0.628464
    outer loop
      vertex 10 -21.4 13.1527
      vertex 9.313 -20.1076 14.003
      vertex 10 -19.257 13.1527
    endloop
  endfacet
  facet normal -0.777838 -0 -0.628464
    outer loop
      vertex 9.313 -20.1076 14.003
      vertex 10 -21.4 13.1527
      vertex 9.313 -22 14.003
    endloop
  endfacet
  facet normal -0.777838 -7.41527e-07 -0.628465
    outer loop
      vertex 10 -21.4 13.1527
      vertex 10.003 -22 13.149
      vertex 9.313 -22 14.003
    endloop
  endfacet
  facet normal -0.707107 -0.707107 0
    outer loop
      vertex 15.003 24.602 14.898
      vertex 12.603 27.002 24.998
      vertex 12.603 27.002 14.898
    endloop
  endfacet
  facet normal -0.707107 -0.707107 0
    outer loop
      vertex 12.603 27.002 24.998
      vertex 15.003 24.602 14.898
      vertex 15.003 24.602 24.998
    endloop
  endfacet
  facet normal 0 1 0
    outer loop
      vertex 15.003 22.992 24.721
      vertex 13.753 22.992 23.623
      vertex 14.927 22.992 24.797
    endloop
  endfacet
  facet normal 0 1 0
    outer loop
      vertex 15.003 22.992 24.721
      vertex 13.753 22.992 22.725
      vertex 13.753 22.992 23.623
    endloop
  endfacet
  facet normal 0 1 -0
    outer loop
      vertex 15.003 22.992 21.627
      vertex 13.753 22.992 22.725
      vertex 15.003 22.992 24.721
    endloop
  endfacet
  facet normal 0 1 0
    outer loop
      vertex 13.753 22.992 22.725
      vertex 15.003 22.992 21.627
      vertex 14.927 22.992 21.551
    endloop
  endfacet
  facet normal 0 0 1
    outer loop
      vertex -29.252 -13.403 9.898
      vertex -29.303 -13.403 9.898
      vertex -29.252 -13.451 9.898
    endloop
  endfacet
  facet normal -0 0 1
    outer loop
      vertex -15.2387 -13.451 9.898
      vertex -0.00199986 -18.153 9.898
      vertex -0.00199986 -13.451 9.898
    endloop
  endfacet
  facet normal -0 0 1
    outer loop
      vertex -15.4704 -13.4753 9.898
      vertex -0.00199986 -18.153 9.898
      vertex -15.2387 -13.451 9.898
    endloop
  endfacet
  facet normal 0 0 1
    outer loop
      vertex -29.303 -18.153 9.898
      vertex -15.5453 -13.451 9.898
      vertex -29.252 -13.451 9.898
    endloop
  endfacet
  facet normal 0 0 1
    outer loop
      vertex -15.5453 -13.451 9.898
      vertex -29.303 -18.153 9.898
      vertex -15.4704 -13.4753 9.898
    endloop
  endfacet
  facet normal 0 0 1
    outer loop
      vertex -15.4704 -13.4753 9.898
      vertex -29.303 -18.153 9.898
      vertex -0.00199986 -18.153 9.898
    endloop
  endfacet
  facet normal 0 0 1
    outer loop
      vertex -29.303 -18.153 9.898
      vertex -29.252 -13.451 9.898
      vertex -29.303 -13.403 9.898
    endloop
  endfacet
  facet normal -0 0 1
    outer loop
      vertex -29.252 -4.449 7.498
      vertex -0.00199986 -4.498 7.498
      vertex -0.00199986 -4.449 7.498
    endloop
  endfacet
  facet normal 0 0 1
    outer loop
      vertex -0.00199986 -4.498 7.498
      vertex -29.252 -4.449 7.498
      vertex -29.252 -4.498 7.498
    endloop
  endfacet
  facet normal 1 -0 0
    outer loop
      vertex -14.502 24.602 12.498
      vertex -14.502 28 2.5
      vertex -14.502 28 13.149
    endloop
  endfacet
  facet normal 1 0 0
    outer loop
      vertex -14.502 24.602 12.498
      vertex -14.502 28 13.149
      vertex -14.502 25.253 13.149
    endloop
  endfacet
  facet normal 1 0 0
    outer loop
      vertex -14.502 28 2.5
      vertex -14.502 24.602 12.498
      vertex -14.502 23.203 3.598
    endloop
  endfacet
  facet normal 1 0 0
    outer loop
      vertex -14.502 23.203 3.598
      vertex -14.502 24.602 12.498
      vertex -14.502 23.203 12.498
    endloop
  endfacet
  facet normal 1 0 0
    outer loop
      vertex -14.502 28 2.5
      vertex -14.502 23.203 3.598
      vertex -14.502 25.5 0
    endloop
  endfacet
  facet normal 1 0 0
    outer loop
      vertex -14.502 2.702 0
      vertex -14.502 23.203 3.598
      vertex -14.502 2.702 3.598
    endloop
  endfacet
  facet normal 1 0 0
    outer loop
      vertex -14.502 23.203 3.598
      vertex -14.502 2.702 0
      vertex -14.502 25.5 0
    endloop
  endfacet
  facet normal 0 1 -0
    outer loop
      vertex -0.00199986 -13.451 7.498
      vertex -15.2387 -13.451 9.898
      vertex -0.00199986 -13.451 9.898
    endloop
  endfacet
  facet normal 0 1 0
    outer loop
      vertex -15.2387 -13.451 9.898
      vertex -0.00199986 -13.451 7.498
      vertex -15.2387 -13.451 7.498
    endloop
  endfacet
  facet normal 0 1 -0
    outer loop
      vertex -15.5453 -13.451 7.498
      vertex -29.252 -13.451 9.898
      vertex -15.5453 -13.451 9.898
    endloop
  endfacet
  facet normal 0 1 0
    outer loop
      vertex -29.252 -13.451 9.898
      vertex -15.5453 -13.451 7.498
      vertex -29.252 -13.451 7.498
    endloop
  endfacet
  facet normal -1 0 0
    outer loop
      vertex 10 -18.1 2.1
      vertex 10 -18.153 9.898
      vertex 10 -18.1 9.898
    endloop
  endfacet
  facet normal -1 0 0
    outer loop
      vertex 10 -18.153 9.898
      vertex 10 -18.453 12.499
      vertex 10 -18.153 12.499
    endloop
  endfacet
  facet normal -1 0 0
    outer loop
      vertex 10 -21.4 2.1
      vertex 10 -18.153 9.898
      vertex 10 -18.1 2.1
    endloop
  endfacet
  facet normal -1 0 0
    outer loop
      vertex 10 -18.453 12.499
      vertex 10 -19.257 13.1527
      vertex 10 -18.453 14.8
    endloop
  endfacet
  facet normal -1 0 0
    outer loop
      vertex 10 -21.4 13.1527
      vertex 10 -18.153 9.898
      vertex 10 -21.4 2.1
    endloop
  endfacet
  facet normal -1 0 0
    outer loop
      vertex 10 -18.153 9.898
      vertex 10 -21.4 13.1527
      vertex 10 -18.453 12.499
    endloop
  endfacet
  facet normal -1 0 0
    outer loop
      vertex 10 -18.453 12.499
      vertex 10 -21.4 13.1527
      vertex 10 -19.257 13.1527
    endloop
  endfacet
  facet normal -1 -0 0
    outer loop
      vertex 10 -18.453 14.8
      vertex 10 -19.257 13.1527
      vertex 10 -20.905 14.8
    endloop
  endfacet
  facet normal 0.777839 0 -0.628464
    outer loop
      vertex -0.00199986 -22 13.149
      vertex 0.688 -20.1076 14.003
      vertex 0.688 -22 14.003
    endloop
  endfacet
  facet normal 0.777839 0 -0.628464
    outer loop
      vertex 0.688 -20.1076 14.003
      vertex -0.00199986 -22 13.149
      vertex -0.00199986 -19.2533 13.149
    endloop
  endfacet
  facet normal 0 -1 0
    outer loop
      vertex -21.503 21.002 9.599
      vertex -18.752 21.002 12.498
      vertex -21.503 21.002 12.498
    endloop
  endfacet
  facet normal 0 -1 -0
    outer loop
      vertex -18.752 21.002 12.498
      vertex -21.503 21.002 9.599
      vertex -18.752 21.002 9.599
    endloop
  endfacet
  facet normal 0 1 -0
    outer loop
      vertex -18.752 7.701 9.599
      vertex -21.503 7.701 12.498
      vertex -18.752 7.701 12.498
    endloop
  endfacet
  facet normal 0 1 0
    outer loop
      vertex -21.503 7.701 12.498
      vertex -18.752 7.701 9.599
      vertex -21.503 7.701 9.599
    endloop
  endfacet
  facet normal 1 -0 0
    outer loop
      vertex -21.503 7.701 12.498
      vertex -21.503 21.002 9.599
      vertex -21.503 21.002 12.498
    endloop
  endfacet
  facet normal 1 0 0
    outer loop
      vertex -21.503 21.002 9.599
      vertex -21.503 7.701 12.498
      vertex -21.503 7.701 9.599
    endloop
  endfacet
  facet normal -0 0 1
    outer loop
      vertex -21.503 21.002 9.599
      vertex -18.752 7.701 9.599
      vertex -18.752 21.002 9.599
    endloop
  endfacet
  facet normal 0 0 1
    outer loop
      vertex -18.752 7.701 9.599
      vertex -21.503 21.002 9.599
      vertex -21.503 7.701 9.599
    endloop
  endfacet
  facet normal -1 0 0
    outer loop
      vertex 10 0.151999 9.898
      vertex 10 1.2 14.8
      vertex 10 1.2 2.1
    endloop
  endfacet
  facet normal -1 0 0
    outer loop
      vertex 10 1.2 14.8
      vertex 10 0.151999 9.898
      vertex 10 0.252 12.499
    endloop
  endfacet
  facet normal -1 0 0
    outer loop
      vertex 10 0.0999994 2.1
      vertex 10 0.151999 9.898
      vertex 10 1.2 2.1
    endloop
  endfacet
  facet normal -1 -0 0
    outer loop
      vertex 10 0.151999 9.898
      vertex 10 0.0999994 2.1
      vertex 10 0.0999994 9.898
    endloop
  endfacet
  facet normal -1 -0 0
    outer loop
      vertex 10 1.2 14.8
      vertex 10 0.252 12.499
      vertex 10 0.252 14.8
    endloop
  endfacet
  facet normal -1 -0 0
    outer loop
      vertex 10 0.252 12.499
      vertex 10 0.151999 9.898
      vertex 10 0.151999 12.499
    endloop
  endfacet
  facet normal 0 1 -2.32281e-05
    outer loop
      vertex 12.603 -21.003 14.898
      vertex -30.602 -21.0028 24.998
      vertex 12.603 -21.0028 24.998
    endloop
  endfacet
  facet normal 0 1 -2.32281e-05
    outer loop
      vertex -30.602 -21.0028 24.998
      vertex 12.603 -21.003 14.898
      vertex -30.602 -21.003 14.898
    endloop
  endfacet
  facet normal 0 -1 0
    outer loop
      vertex -18.752 23.203 3.598
      vertex -14.502 23.203 12.498
      vertex -18.752 23.203 12.498
    endloop
  endfacet
  facet normal 0 -1 -0
    outer loop
      vertex -14.502 23.203 12.498
      vertex -18.752 23.203 3.598
      vertex -14.502 23.203 3.598
    endloop
  endfacet
  facet normal -0.707254 0.706959 -1.63695e-05
    outer loop
      vertex 14.442 -19.163 24.998
      vertex 15.003 -18.602 14.898
      vertex 12.603 -21.003 14.898
    endloop
  endfacet
  facet normal 0.707106 0.707108 -1.64248e-05
    outer loop
      vertex -30.602 -21.0028 24.998
      vertex -30.602 -21.003 14.898
      vertex -31.163 -20.4417 24.998
    endloop
  endfacet
  facet normal 1 0 0
    outer loop
      vertex -18.752 7.701 12.498
      vertex -18.752 2.698 12.498
      vertex -18.752 7.701 9.599
    endloop
  endfacet
  facet normal 1 0 0
    outer loop
      vertex -18.752 21.002 9.599
      vertex -18.752 23.203 12.498
      vertex -18.752 21.002 12.498
    endloop
  endfacet
  facet normal 1 0 0
    outer loop
      vertex -18.752 23.203 12.498
      vertex -18.752 21.002 9.599
      vertex -18.752 23.203 3.598
    endloop
  endfacet
  facet normal 1 -0 0
    outer loop
      vertex -18.752 7.701 9.599
      vertex -18.752 23.203 3.598
      vertex -18.752 21.002 9.599
    endloop
  endfacet
  facet normal 1 0 0
    outer loop
      vertex -18.752 7.701 9.599
      vertex -18.752 2.698 3.598
      vertex -18.752 23.203 3.598
    endloop
  endfacet
  facet normal 1 0 0
    outer loop
      vertex -18.752 2.698 3.598
      vertex -18.752 7.701 9.599
      vertex -18.752 2.698 12.498
    endloop
  endfacet
  facet normal -0.707254 0.70696 -1.64213e-05
    outer loop
      vertex 12.603 -21.0028 24.998
      vertex 14.442 -19.163 24.998
      vertex 12.603 -21.003 14.898
    endloop
  endfacet
  facet normal 0.707255 0.706959 0
    outer loop
      vertex -33.002 -18.602 24.998
      vertex -31.163 -20.4417 24.998
      vertex -33.002 -18.602 14.898
    endloop
  endfacet
  facet normal -0.707107 0.707107 0
    outer loop
      vertex 15.003 -18.602 24.998
      vertex 15.003 -18.602 14.898
      vertex 14.442 -19.163 24.998
    endloop
  endfacet
  facet normal -0 0.706955 0.707258
    outer loop
      vertex 10 -20.905 14.8
      vertex 12.603 -21.003 14.898
      vertex 12.603 -20.905 14.8
    endloop
  endfacet
  facet normal 0 0.706955 0.707258
    outer loop
      vertex 12.603 -21.003 14.898
      vertex 10 -20.905 14.8
      vertex -30.602 -21.003 14.898
    endloop
  endfacet
  facet normal 4.12996e-09 0.706959 0.707254
    outer loop
      vertex -0.00199986 -19.2533 13.149
      vertex -30.602 -18.602 12.498
      vertex -30.602 -21.003 14.898
    endloop
  endfacet
  facet normal -0.577429 0.577188 0.577434
    outer loop
      vertex 15.003 -18.602 14.898
      vertex 14.905 -18.602 14.8
      vertex 12.603 -20.905 14.8
    endloop
  endfacet
  facet normal -0.577428 0.577188 0.577435
    outer loop
      vertex 15.003 -18.602 14.898
      vertex 12.603 -20.905 14.8
      vertex 12.603 -21.003 14.898
    endloop
  endfacet
  facet normal -0.707103 0 0.70711
    outer loop
      vertex 14.905 1.2 14.8
      vertex 15.003 -18.602 14.898
      vertex 15.003 24.602 14.898
    endloop
  endfacet
  facet normal -0.707103 0 0.70711
    outer loop
      vertex 14.905 0.0999994 14.8
      vertex 15.003 -18.602 14.898
      vertex 14.905 1.2 14.8
    endloop
  endfacet
  facet normal -0.707103 0 0.70711
    outer loop
      vertex 14.905 -18.1 14.8
      vertex 15.003 -18.602 14.898
      vertex 14.905 0.0999994 14.8
    endloop
  endfacet
  facet normal -0.707103 0 0.70711
    outer loop
      vertex 15.003 -18.602 14.898
      vertex 14.905 -18.1 14.8
      vertex 14.905 -18.602 14.8
    endloop
  endfacet
  facet normal 0 0.706959 0.707254
    outer loop
      vertex -0.00199986 -19.2533 13.149
      vertex -0.00199986 -18.602 12.498
      vertex -30.602 -18.602 12.498
    endloop
  endfacet
  facet normal 2.01178e-08 0.706959 0.707254
    outer loop
      vertex 0.688 -20.1076 14.003
      vertex -0.00199986 -19.2533 13.149
      vertex -30.602 -21.003 14.898
    endloop
  endfacet
  facet normal 0 0 1
    outer loop
      vertex -0.00199986 0.151999 9.898
      vertex -29.252 -4.449 9.898
      vertex -0.00199986 -4.449 9.898
    endloop
  endfacet
  facet normal -0 0 1
    outer loop
      vertex -29.303 0.151999 9.898
      vertex -29.252 -4.449 9.898
      vertex -0.00199986 0.151999 9.898
    endloop
  endfacet
  facet normal 0 0 1
    outer loop
      vertex -29.303 -4.498 9.898
      vertex -29.252 -4.449 9.898
      vertex -29.303 0.151999 9.898
    endloop
  endfacet
  facet normal 0 0 1
    outer loop
      vertex -29.252 -4.449 9.898
      vertex -29.303 -4.498 9.898
      vertex -29.252 -4.498 9.898
    endloop
  endfacet
  facet normal -0.707107 0 0.707106
    outer loop
      vertex 13.753 -16.989 23.623
      vertex 14.927 22.992 24.797
      vertex 13.753 22.992 23.623
    endloop
  endfacet
  facet normal -0.707107 0 0.707106
    outer loop
      vertex 14.927 22.992 24.797
      vertex 13.753 -16.989 23.623
      vertex 14.927 -16.989 24.797
    endloop
  endfacet
  facet normal 1 0 0
    outer loop
      vertex 16 25.5 24.998
      vertex 16 -4.449 12.499
      vertex 16 25.5 2.5
    endloop
  endfacet
  facet normal 1 -0 0
    outer loop
      vertex 16 -19.5 24.998
      vertex 16 -4.449 12.499
      vertex 16 25.5 24.998
    endloop
  endfacet
  facet normal 1 0 0
    outer loop
      vertex 16 -19.5 2.5
      vertex 16 -13.451 12.499
      vertex 16 -19.5 24.998
    endloop
  endfacet
  facet normal 1 0 0
    outer loop
      vertex 16 -4.449 12.499
      vertex 16 -19.5 24.998
      vertex 16 -13.451 12.499
    endloop
  endfacet
  facet normal 1 -0 0
    outer loop
      vertex 16 -4.449 7.498
      vertex 16 25.5 2.5
      vertex 16 -4.449 12.499
    endloop
  endfacet
  facet normal 1 0 0
    outer loop
      vertex 16 -19.5 2.5
      vertex 16 -4.449 7.498
      vertex 16 -13.451 7.498
    endloop
  endfacet
  facet normal 1 0 0
    outer loop
      vertex 16 -4.449 7.498
      vertex 16 -19.5 2.5
      vertex 16 25.5 2.5
    endloop
  endfacet
  facet normal 1 0 0
    outer loop
      vertex 16 -13.451 12.499
      vertex 16 -19.5 2.5
      vertex 16 -13.451 7.498
    endloop
  endfacet
  facet normal 0 -1 0
    outer loop
      vertex -29.303 -4.498 9.898
      vertex -29.252 -4.498 7.498
      vertex -29.252 -4.498 9.898
    endloop
  endfacet
  facet normal 0 -1 0
    outer loop
      vertex -29.303 -4.498 0.997999
      vertex -29.252 -4.498 7.498
      vertex -29.303 -4.498 9.898
    endloop
  endfacet
  facet normal 0 -1 0
    outer loop
      vertex -29.303 -4.498 0.997999
      vertex -0.00199986 -4.498 7.498
      vertex -29.252 -4.498 7.498
    endloop
  endfacet
  facet normal 0 -1 -0
    outer loop
      vertex -0.00199986 -4.498 7.498
      vertex -29.303 -4.498 0.997999
      vertex -0.00199986 -4.498 0.997999
    endloop
  endfacet
  facet normal 0.707107 0 -0.707107
    outer loop
      vertex 16 -19.5 2.5
      vertex 13.5 25.5 0
      vertex 16 25.5 2.5
    endloop
  endfacet
  facet normal 0.707107 0 -0.707107
    outer loop
      vertex 13.5 25.5 0
      vertex 16 -19.5 2.5
      vertex 13.5 -19.5 0
    endloop
  endfacet
  facet normal 0 -0.707107 -0.707107
    outer loop
      vertex 10.003 -19.5 0
      vertex 13.5 -22 2.5
      vertex 10.003 -22 2.5
    endloop
  endfacet
  facet normal 0 -0.707107 -0.707107
    outer loop
      vertex 13.5 -22 2.5
      vertex 10.003 -19.5 0
      vertex 13.5 -19.5 0
    endloop
  endfacet
  facet normal -1 0 0
    outer loop
      vertex 13.753 -16.989 22.725
      vertex 13.753 22.992 23.623
      vertex 13.753 22.992 22.725
    endloop
  endfacet
  facet normal -1 -0 0
    outer loop
      vertex 13.753 22.992 23.623
      vertex 13.753 -16.989 22.725
      vertex 13.753 -16.989 23.623
    endloop
  endfacet
  facet normal 0.707107 -0 0.707106
    outer loop
      vertex -32.926 -16.989 24.797
      vertex -31.803 22.992 23.674
      vertex -32.926 22.992 24.797
    endloop
  endfacet
  facet normal 0.707107 0 0.707106
    outer loop
      vertex -31.803 22.992 23.674
      vertex -32.926 -16.989 24.797
      vertex -31.803 -16.989 23.674
    endloop
  endfacet
  facet normal 0 -1 0
    outer loop
      vertex -29.252 -4.449 7.498
      vertex -0.00199986 -4.449 9.898
      vertex -29.252 -4.449 9.898
    endloop
  endfacet
  facet normal 0 -1 -0
    outer loop
      vertex -0.00199986 -4.449 9.898
      vertex -29.252 -4.449 7.498
      vertex -0.00199986 -4.449 7.498
    endloop
  endfacet
  facet normal 0 0 -1
    outer loop
      vertex 10 -21.4 2.1
      vertex 10.003 -18.1 2.1
      vertex 10.003 -21.4 2.1
    endloop
  endfacet
  facet normal -0 0 -1
    outer loop
      vertex 10.003 -18.1 2.1
      vertex 10 -21.4 2.1
      vertex 10 -18.1 2.1
    endloop
  endfacet
  facet normal -0 0 1
    outer loop
      vertex -14.782 -13.403 7.498
      vertex -0.00199986 -13.451 7.498
      vertex -0.00199986 -13.403 7.498
    endloop
  endfacet
  facet normal 0 0 1
    outer loop
      vertex -0.00199986 -13.451 7.498
      vertex -14.782 -13.403 7.498
      vertex -15.2387 -13.451 7.498
    endloop
  endfacet
  facet normal 0 0 1
    outer loop
      vertex -29.252 -13.451 7.498
      vertex -15.693 -13.403 7.498
      vertex -29.252 -13.403 7.498
    endloop
  endfacet
  facet normal 0 0 1
    outer loop
      vertex -15.693 -13.403 7.498
      vertex -29.252 -13.451 7.498
      vertex -15.5453 -13.451 7.498
    endloop
  endfacet
  facet normal 1 -0 0
    outer loop
      vertex -29.252 -4.498 9.898
      vertex -29.252 -4.449 7.498
      vertex -29.252 -4.449 9.898
    endloop
  endfacet
  facet normal 1 0 0
    outer loop
      vertex -29.252 -4.449 7.498
      vertex -29.252 -4.498 9.898
      vertex -29.252 -4.498 7.498
    endloop
  endfacet
  facet normal 0 0 -1
    outer loop
      vertex 10 0.0999994 2.1
      vertex 10.003 1.2 2.1
      vertex 10.003 0.0999994 2.1
    endloop
  endfacet
  facet normal -0 0 -1
    outer loop
      vertex 10.003 1.2 2.1
      vertex 10 0.0999994 2.1
      vertex 10 1.2 2.1
    endloop
  endfacet
  facet normal 0 0 -1
    outer loop
      vertex -0.00199986 -19.5 0
      vertex -4.497 2.702 0
      vertex -0.00199986 25.5 0
    endloop
  endfacet
  facet normal 0 0 -1
    outer loop
      vertex -0.00199986 -19.5 0
      vertex -10.5 -9 0
      vertex -4.497 2.702 0
    endloop
  endfacet
  facet normal 0 0 -1
    outer loop
      vertex -0.00199986 -19.5 0
      vertex -10.889 -10.8303 0
      vertex -10.5 -9 0
    endloop
  endfacet
  facet normal 0 0 -1
    outer loop
      vertex -0.00199986 -19.5 0
      vertex -11.9889 -12.3442 0
      vertex -10.889 -10.8303 0
    endloop
  endfacet
  facet normal 0 0 -1
    outer loop
      vertex -0.00199986 -19.5 0
      vertex -13.6094 -13.2798 0
      vertex -11.9889 -12.3442 0
    endloop
  endfacet
  facet normal 0 0 -1
    outer loop
      vertex -0.00199986 -19.5 0
      vertex -15.4704 -13.4753 0
      vertex -13.6094 -13.2798 0
    endloop
  endfacet
  facet normal 0 0 -1
    outer loop
      vertex -31.5 -19.5 0
      vertex -15.4704 -13.4753 0
      vertex -0.00199986 -19.5 0
    endloop
  endfacet
  facet normal -0 0 -1
    outer loop
      vertex -19.4017 -9.9356 0
      vertex -31.5 -19.5 0
      vertex -19.4017 -8.0644 0
    endloop
  endfacet
  facet normal -0 0 -1
    outer loop
      vertex -18.6406 -11.645 0
      vertex -31.5 -19.5 0
      vertex -19.4017 -9.9356 0
    endloop
  endfacet
  facet normal -0 0 -1
    outer loop
      vertex -17.25 -12.8971 0
      vertex -31.5 -19.5 0
      vertex -18.6406 -11.645 0
    endloop
  endfacet
  facet normal -0 0 -1
    outer loop
      vertex -15.4704 -13.4753 0
      vertex -31.5 -19.5 0
      vertex -17.25 -12.8971 0
    endloop
  endfacet
  facet normal -0 0 -1
    outer loop
      vertex -0.00199986 25.5 0
      vertex -4.497 2.702 0
      vertex -4.497 25.5 0
    endloop
  endfacet
  facet normal 0 0 -1
    outer loop
      vertex -10.889 -7.16968 0
      vertex -4.497 2.702 0
      vertex -10.5 -9 0
    endloop
  endfacet
  facet normal 0 0 -1
    outer loop
      vertex -11.9889 -5.65585 0
      vertex -4.497 2.702 0
      vertex -10.889 -7.16968 0
    endloop
  endfacet
  facet normal 0 0 -1
    outer loop
      vertex -14.502 2.702 0
      vertex -11.9889 -5.65585 0
      vertex -13.6094 -4.72025 0
    endloop
  endfacet
  facet normal 0 0 -1
    outer loop
      vertex -11.9889 -5.65585 0
      vertex -14.502 2.702 0
      vertex -4.497 2.702 0
    endloop
  endfacet
  facet normal 0 0 -1
    outer loop
      vertex -15.4704 -4.52465 0
      vertex -14.502 2.702 0
      vertex -13.6094 -4.72025 0
    endloop
  endfacet
  facet normal 0 0 -1
    outer loop
      vertex -17.25 -5.10289 0
      vertex -14.502 2.702 0
      vertex -15.4704 -4.52465 0
    endloop
  endfacet
  facet normal 0 0 -1
    outer loop
      vertex -18.6406 -6.35497 0
      vertex -14.502 2.702 0
      vertex -17.25 -5.10289 0
    endloop
  endfacet
  facet normal -0 0 -1
    outer loop
      vertex -14.502 2.702 0
      vertex -18.6406 -6.35497 0
      vertex -31.5 25.5 0
    endloop
  endfacet
  facet normal 0 0 -1
    outer loop
      vertex -31.5 -19.5 0
      vertex -18.6406 -6.35497 0
      vertex -19.4017 -8.0644 0
    endloop
  endfacet
  facet normal -0 0 -1
    outer loop
      vertex -18.6406 -6.35497 0
      vertex -31.5 -19.5 0
      vertex -31.5 25.5 0
    endloop
  endfacet
  facet normal 0 0 -1
    outer loop
      vertex -14.502 2.702 0
      vertex -31.5 25.5 0
      vertex -14.502 25.5 0
    endloop
  endfacet
  facet normal 0.707107 0 -0.707107
    outer loop
      vertex -31.803 -16.989 22.674
      vertex -32.926 22.992 21.551
      vertex -31.803 22.992 22.674
    endloop
  endfacet
  facet normal 0.707107 0 -0.707107
    outer loop
      vertex -32.926 22.992 21.551
      vertex -31.803 -16.989 22.674
      vertex -32.926 -16.989 21.551
    endloop
  endfacet
  facet normal 0 1 -0
    outer loop
      vertex -0.00199986 -13.403 0.997999
      vertex -14.782 -13.403 7.498
      vertex -0.00199986 -13.403 7.498
    endloop
  endfacet
  facet normal 0 1 0
    outer loop
      vertex -14.782 -13.403 7.498
      vertex -0.00199986 -13.403 0.997999
      vertex -14.782 -13.403 0.997999
    endloop
  endfacet
  facet normal 0 1 0
    outer loop
      vertex -15.693 -13.403 7.498
      vertex -15.693 -13.403 0.997999
      vertex -29.252 -13.403 7.498
    endloop
  endfacet
  facet normal 0 1 -0
    outer loop
      vertex -29.252 -13.403 7.498
      vertex -29.303 -13.403 9.898
      vertex -29.252 -13.403 9.898
    endloop
  endfacet
  facet normal 0 1 0
    outer loop
      vertex -29.252 -13.403 7.498
      vertex -29.303 -13.403 0.997999
      vertex -29.303 -13.403 9.898
    endloop
  endfacet
  facet normal 0 1 0
    outer loop
      vertex -29.303 -13.403 0.997999
      vertex -29.252 -13.403 7.498
      vertex -15.693 -13.403 0.997999
    endloop
  endfacet
  facet normal 0.57735 -0.57735 -0.57735
    outer loop
      vertex 13.5 -19.5 0
      vertex 16 -19.5 2.5
      vertex 13.5 -22 2.5
    endloop
  endfacet
  facet normal 1 -0 0
    outer loop
      vertex -29.252 -13.451 9.898
      vertex -29.252 -13.403 7.498
      vertex -29.252 -13.403 9.898
    endloop
  endfacet
  facet normal 1 0 0
    outer loop
      vertex -29.252 -13.403 7.498
      vertex -29.252 -13.451 9.898
      vertex -29.252 -13.451 7.498
    endloop
  endfacet
  facet normal 1 0 0
    outer loop
      vertex -29.303 0.151999 12.498
      vertex -29.303 -4.498 9.898
      vertex -29.303 0.151999 9.898
    endloop
  endfacet
  facet normal 1 0 0
    outer loop
      vertex -29.303 -4.498 9.898
      vertex -29.303 -13.403 9.898
      vertex -29.303 -4.498 0.997999
    endloop
  endfacet
  facet normal 1 0 0
    outer loop
      vertex -29.303 0.151999 12.498
      vertex -29.303 -13.403 9.898
      vertex -29.303 -4.498 9.898
    endloop
  endfacet
  facet normal 1 -0 0
    outer loop
      vertex -29.303 -18.153 12.498
      vertex -29.303 -13.403 9.898
      vertex -29.303 0.151999 12.498
    endloop
  endfacet
  facet normal 1 0 0
    outer loop
      vertex -29.303 -13.403 9.898
      vertex -29.303 -18.153 12.498
      vertex -29.303 -18.153 9.898
    endloop
  endfacet
  facet normal 1 0 0
    outer loop
      vertex -29.303 -4.498 0.997999
      vertex -29.303 -13.403 9.898
      vertex -29.303 -13.403 0.997999
    endloop
  endfacet
  facet normal -0.57735 -0.57735 -0.57735
    outer loop
      vertex -31.5 -19.5 0
      vertex -31.5 -22 2.5
      vertex -34 -19.5 2.5
    endloop
  endfacet
  facet normal 1 0 0
    outer loop
      vertex -33.002 22.992 21.627
      vertex -33.002 24.602 24.998
      vertex -33.002 22.992 24.721
    endloop
  endfacet
  facet normal 1 0 0
    outer loop
      vertex -33.002 24.602 24.998
      vertex -33.002 -16.989 24.721
      vertex -33.002 22.992 24.721
    endloop
  endfacet
  facet normal 1 0 0
    outer loop
      vertex -33.002 -16.989 24.721
      vertex -33.002 -18.602 24.998
      vertex -33.002 -16.989 21.627
    endloop
  endfacet
  facet normal 1 -0 0
    outer loop
      vertex -33.002 -18.602 24.998
      vertex -33.002 -16.989 24.721
      vertex -33.002 24.602 24.998
    endloop
  endfacet
  facet normal 1 0 0
    outer loop
      vertex -33.002 24.602 24.998
      vertex -33.002 22.992 21.627
      vertex -33.002 24.602 14.898
    endloop
  endfacet
  facet normal 1 -0 0
    outer loop
      vertex -33.002 -16.989 21.627
      vertex -33.002 24.602 14.898
      vertex -33.002 22.992 21.627
    endloop
  endfacet
  facet normal 1 0 0
    outer loop
      vertex -33.002 -16.989 21.627
      vertex -33.002 -18.602 14.898
      vertex -33.002 24.602 14.898
    endloop
  endfacet
  facet normal 1 0 0
    outer loop
      vertex -33.002 -18.602 14.898
      vertex -33.002 -16.989 21.627
      vertex -33.002 -18.602 24.998
    endloop
  endfacet
  facet normal 0 -1 0
    outer loop
      vertex -33.002 -16.989 24.721
      vertex -31.803 -16.989 23.674
      vertex -32.926 -16.989 24.797
    endloop
  endfacet
  facet normal 0 -1 0
    outer loop
      vertex -33.002 -16.989 24.721
      vertex -31.803 -16.989 22.674
      vertex -31.803 -16.989 23.674
    endloop
  endfacet
  facet normal 0 -1 0
    outer loop
      vertex -33.002 -16.989 21.627
      vertex -31.803 -16.989 22.674
      vertex -33.002 -16.989 24.721
    endloop
  endfacet
  facet normal 0 -1 0
    outer loop
      vertex -31.803 -16.989 22.674
      vertex -33.002 -16.989 21.627
      vertex -32.926 -16.989 21.551
    endloop
  endfacet
  facet normal -0.706885 0 -0.707329
    outer loop
      vertex -33.002 -16.989 21.627
      vertex -32.926 22.992 21.551
      vertex -32.926 -16.989 21.551
    endloop
  endfacet
  facet normal -0.706885 0 -0.707329
    outer loop
      vertex -32.926 22.992 21.551
      vertex -33.002 -16.989 21.627
      vertex -33.002 22.992 21.627
    endloop
  endfacet
  facet normal -1 0 0
    outer loop
      vertex -34 -19.5 2.5
      vertex -34 25.5 24.998
      vertex -34 25.5 2.5
    endloop
  endfacet
  facet normal -1 -0 0
    outer loop
      vertex -34 25.5 24.998
      vertex -34 -19.5 2.5
      vertex -34 -19.5 24.998
    endloop
  endfacet
  facet normal 0.707107 -0.707107 0
    outer loop
      vertex 13.5 -22 24.998
      vertex 16 -19.5 2.5
      vertex 16 -19.5 24.998
    endloop
  endfacet
  facet normal 0.707107 -0.707107 0
    outer loop
      vertex 16 -19.5 2.5
      vertex 13.5 -22 24.998
      vertex 13.5 -22 2.5
    endloop
  endfacet
  facet normal -0.707107 0 -0.707107
    outer loop
      vertex -31.5 -19.5 0
      vertex -34 25.5 2.5
      vertex -31.5 25.5 0
    endloop
  endfacet
  facet normal -0.707107 -0 -0.707107
    outer loop
      vertex -34 25.5 2.5
      vertex -31.5 -19.5 0
      vertex -34 -19.5 2.5
    endloop
  endfacet
  facet normal -0 1 0
    outer loop
      vertex 14.252 -18.1 14.8
      vertex 14.905 -18.1 14.8
      vertex 14.252 -18.1 14.147
    endloop
  endfacet
  facet normal 0 0 1
    outer loop
      vertex 16 25.5 24.998
      vertex 15.003 24.602 24.998
      vertex 16 -19.5 24.998
    endloop
  endfacet
  facet normal 0 0 1
    outer loop
      vertex 13.5 28 24.998
      vertex 15.003 24.602 24.998
      vertex 16 25.5 24.998
    endloop
  endfacet
  facet normal 0 0 1
    outer loop
      vertex 13.5 28 24.998
      vertex 12.603 27.002 24.998
      vertex 15.003 24.602 24.998
    endloop
  endfacet
  facet normal 0 0 1
    outer loop
      vertex 13.5 28 24.998
      vertex -30.602 27.002 24.998
      vertex 12.603 27.002 24.998
    endloop
  endfacet
  facet normal -0 0 1
    outer loop
      vertex -31.5 28 24.998
      vertex -30.602 27.002 24.998
      vertex 13.5 28 24.998
    endloop
  endfacet
  facet normal 0 0 1
    outer loop
      vertex -31.5 28 24.998
      vertex -33.002 24.602 24.998
      vertex -30.602 27.002 24.998
    endloop
  endfacet
  facet normal 0 0 1
    outer loop
      vertex -33.002 24.602 24.998
      vertex -34 25.5 24.998
      vertex -33.002 -18.602 24.998
    endloop
  endfacet
  facet normal -0 0 1
    outer loop
      vertex -34 25.5 24.998
      vertex -33.002 24.602 24.998
      vertex -31.5 28 24.998
    endloop
  endfacet
  facet normal -0 0 1
    outer loop
      vertex 15.003 -18.602 24.998
      vertex 16 -19.5 24.998
      vertex 15.003 24.602 24.998
    endloop
  endfacet
  facet normal -0 0 1
    outer loop
      vertex 14.442 -19.163 24.998
      vertex 16 -19.5 24.998
      vertex 15.003 -18.602 24.998
    endloop
  endfacet
  facet normal 0 0 1
    outer loop
      vertex 14.442 -19.163 24.998
      vertex 13.5 -22 24.998
      vertex 16 -19.5 24.998
    endloop
  endfacet
  facet normal -0 0 1
    outer loop
      vertex 12.603 -21.0028 24.998
      vertex 13.5 -22 24.998
      vertex 14.442 -19.163 24.998
    endloop
  endfacet
  facet normal -0 0 1
    outer loop
      vertex -30.602 -21.0028 24.998
      vertex 13.5 -22 24.998
      vertex 12.603 -21.0028 24.998
    endloop
  endfacet
  facet normal 0 0 1
    outer loop
      vertex -30.602 -21.0028 24.998
      vertex -31.5 -22 24.998
      vertex 13.5 -22 24.998
    endloop
  endfacet
  facet normal 0 0 1
    outer loop
      vertex -31.163 -20.4417 24.998
      vertex -31.5 -22 24.998
      vertex -30.602 -21.0028 24.998
    endloop
  endfacet
  facet normal -0 0 1
    outer loop
      vertex -34 -19.5 24.998
      vertex -31.163 -20.4417 24.998
      vertex -33.002 -18.602 24.998
    endloop
  endfacet
  facet normal 0 0 1
    outer loop
      vertex -31.163 -20.4417 24.998
      vertex -34 -19.5 24.998
      vertex -31.5 -22 24.998
    endloop
  endfacet
  facet normal 0 0 1
    outer loop
      vertex -34 -19.5 24.998
      vertex -33.002 -18.602 24.998
      vertex -34 25.5 24.998
    endloop
  endfacet
  facet normal -0.57735 0.57735 -0.57735
    outer loop
      vertex -31.5 28 2.5
      vertex -31.5 25.5 0
      vertex -34 25.5 2.5
    endloop
  endfacet
  facet normal 0.707107 -0.707107 0
    outer loop
      vertex -33.002 24.602 24.998
      vertex -30.602 27.002 14.898
      vertex -30.602 27.002 24.998
    endloop
  endfacet
  facet normal 0.707107 -0.707107 0
    outer loop
      vertex -30.602 27.002 14.898
      vertex -33.002 24.602 24.998
      vertex -33.002 24.602 14.898
    endloop
  endfacet
  facet normal 0 1 -0
    outer loop
      vertex 14.252 -18.453 12.499
      vertex 10 -18.453 14.8
      vertex 14.252 -18.453 14.8
    endloop
  endfacet
  facet normal 0 1 0
    outer loop
      vertex 10 -18.453 14.8
      vertex 14.252 -18.453 12.499
      vertex 10 -18.453 12.499
    endloop
  endfacet
  facet normal 0 0.707107 -0.707107
    outer loop
      vertex -14.502 25.5 0
      vertex -31.5 28 2.5
      vertex -14.502 28 2.5
    endloop
  endfacet
  facet normal 0 0.707107 -0.707107
    outer loop
      vertex -31.5 28 2.5
      vertex -14.502 25.5 0
      vertex -31.5 25.5 0
    endloop
  endfacet
  facet normal -0.706894 0 0.70732
    outer loop
      vertex -33.002 22.992 24.721
      vertex -32.926 -16.989 24.797
      vertex -32.926 22.992 24.797
    endloop
  endfacet
  facet normal -0.706894 0 0.70732
    outer loop
      vertex -32.926 -16.989 24.797
      vertex -33.002 22.992 24.721
      vertex -33.002 -16.989 24.721
    endloop
  endfacet
  facet normal 0 1 0
    outer loop
      vertex -31.803 22.992 23.674
      vertex -33.002 22.992 24.721
      vertex -32.926 22.992 24.797
    endloop
  endfacet
  facet normal 0 1 -0
    outer loop
      vertex -31.803 22.992 22.674
      vertex -33.002 22.992 24.721
      vertex -31.803 22.992 23.674
    endloop
  endfacet
  facet normal 0 1 0
    outer loop
      vertex -31.803 22.992 22.674
      vertex -33.002 22.992 21.627
      vertex -33.002 22.992 24.721
    endloop
  endfacet
  facet normal -0 1 0
    outer loop
      vertex -33.002 22.992 21.627
      vertex -31.803 22.992 22.674
      vertex -32.926 22.992 21.551
    endloop
  endfacet
  facet normal -1 0 0
    outer loop
      vertex 14.252 -18.153 12.499
      vertex 14.252 -13.451 12.499
      vertex 14.252 -13.451 9.898
    endloop
  endfacet
  facet normal -1 0 0
    outer loop
      vertex 14.252 -18.153 12.499
      vertex 14.252 -13.451 9.898
      vertex 14.252 -18.153 9.898
    endloop
  endfacet
  facet normal -1 0 0
    outer loop
      vertex 14.252 -13.451 12.499
      vertex 14.252 -18.153 12.499
      vertex 14.252 -18.1 14.147
    endloop
  endfacet
  facet normal -1 0 0
    outer loop
      vertex 14.252 -18.453 12.499
      vertex 14.252 -18.1 14.147
      vertex 14.252 -18.153 12.499
    endloop
  endfacet
  facet normal -1 -0 0
    outer loop
      vertex 14.252 -18.1 14.147
      vertex 14.252 -18.453 12.499
      vertex 14.252 -18.453 14.8
    endloop
  endfacet
  facet normal -1 0 0
    outer loop
      vertex 14.252 -18.1 14.147
      vertex 14.252 -18.453 14.8
      vertex 14.252 -18.1 14.8
    endloop
  endfacet
  facet normal -1 0 0
    outer loop
      vertex 14.252 -4.449 12.499
      vertex 14.252 0.151999 12.499
      vertex 14.252 0.151999 9.898
    endloop
  endfacet
  facet normal -1 0 0
    outer loop
      vertex 14.252 -4.449 12.499
      vertex 14.252 0.151999 9.898
      vertex 14.252 -4.449 9.898
    endloop
  endfacet
  facet normal -1 0 0
    outer loop
      vertex 14.252 0.151999 12.499
      vertex 14.252 -4.449 12.499
      vertex 14.252 0.0999994 14.147
    endloop
  endfacet
  facet normal -1 0 0
    outer loop
      vertex 14.252 -13.451 12.499
      vertex 14.252 0.0999994 14.147
      vertex 14.252 -4.449 12.499
    endloop
  endfacet
  facet normal -1 -0 0
    outer loop
      vertex 14.252 0.0999994 14.147
      vertex 14.252 -13.451 12.499
      vertex 14.252 -18.1 14.147
    endloop
  endfacet
  facet normal -1 0 0
    outer loop
      vertex 14.252 0.0999994 14.147
      vertex 14.252 0.252 12.499
      vertex 14.252 0.151999 12.499
    endloop
  endfacet
  facet normal -1 0 0
    outer loop
      vertex 14.252 0.252 12.499
      vertex 14.252 0.0999994 14.147
      vertex 14.252 0.252 14.8
    endloop
  endfacet
  facet normal -1 -0 0
    outer loop
      vertex 14.252 0.252 14.8
      vertex 14.252 0.0999994 14.147
      vertex 14.252 0.0999994 14.8
    endloop
  endfacet
  facet normal 0 -1 0
    outer loop
      vertex -31.5 -22 24.998
      vertex 0.688 -22 14.003
      vertex 13.5 -22 24.998
    endloop
  endfacet
  facet normal 0 -1 0
    outer loop
      vertex -31.5 -22 24.998
      vertex -0.00199986 -22 13.149
      vertex 0.688 -22 14.003
    endloop
  endfacet
  facet normal 0 -1 0
    outer loop
      vertex -31.5 -22 2.5
      vertex -0.00199986 -22 13.149
      vertex -31.5 -22 24.998
    endloop
  endfacet
  facet normal 0 -1 -0
    outer loop
      vertex -0.00199986 -22 13.149
      vertex -31.5 -22 2.5
      vertex -0.00199986 -22 2.5
    endloop
  endfacet
  facet normal 0 -1 0
    outer loop
      vertex 9.313 -22 14.003
      vertex 13.5 -22 24.998
      vertex 0.688 -22 14.003
    endloop
  endfacet
  facet normal 0 -1 0
    outer loop
      vertex 10.003 -22 13.149
      vertex 13.5 -22 24.998
      vertex 9.313 -22 14.003
    endloop
  endfacet
  facet normal 0 -1 0
    outer loop
      vertex 13.5 -22 2.5
      vertex 10.003 -22 13.149
      vertex 10.003 -22 2.5
    endloop
  endfacet
  facet normal 0 -1 0
    outer loop
      vertex 10.003 -22 13.149
      vertex 13.5 -22 2.5
      vertex 13.5 -22 24.998
    endloop
  endfacet
  facet normal -0.707107 0 0.707107
    outer loop
      vertex 14.252 -18.1 14.147
      vertex 14.905 0.0999994 14.8
      vertex 14.252 0.0999994 14.147
    endloop
  endfacet
  facet normal -0.707107 0 0.707107
    outer loop
      vertex 14.905 0.0999994 14.8
      vertex 14.252 -18.1 14.147
      vertex 14.905 -18.1 14.8
    endloop
  endfacet
  facet normal 1 -0 0
    outer loop
      vertex -31.803 -16.989 23.674
      vertex -31.803 22.992 22.674
      vertex -31.803 22.992 23.674
    endloop
  endfacet
  facet normal 1 0 0
    outer loop
      vertex -31.803 22.992 22.674
      vertex -31.803 -16.989 23.674
      vertex -31.803 -16.989 22.674
    endloop
  endfacet
  facet normal 0 1 -0
    outer loop
      vertex -0.00199986 28 13.149
      vertex -5.187 28 14.003
      vertex 0.688 28 14.003
    endloop
  endfacet
  facet normal 0 1 0
    outer loop
      vertex -0.00199986 28 13.149
      vertex -4.497 28 13.149
      vertex -5.187 28 14.003
    endloop
  endfacet
  facet normal 0 1 -0
    outer loop
      vertex -0.00199986 28 2.5
      vertex -4.497 28 13.149
      vertex -0.00199986 28 13.149
    endloop
  endfacet
  facet normal 0 1 0
    outer loop
      vertex -4.497 28 13.149
      vertex -0.00199986 28 2.5
      vertex -4.497 28 2.5
    endloop
  endfacet
  facet normal 0 1 0
    outer loop
      vertex 0.688 28 14.003
      vertex 13.5 28 24.998
      vertex 9.313 28 14.003
    endloop
  endfacet
  facet normal 0 1 0
    outer loop
      vertex 13.5 28 24.998
      vertex 10.003 28 13.149
      vertex 9.313 28 14.003
    endloop
  endfacet
  facet normal 0 1 -0
    outer loop
      vertex 13.5 28 2.5
      vertex 10.003 28 13.149
      vertex 13.5 28 24.998
    endloop
  endfacet
  facet normal 0 1 0
    outer loop
      vertex 10.003 28 13.149
      vertex 13.5 28 2.5
      vertex 10.003 28 2.5
    endloop
  endfacet
  facet normal 0 1 0
    outer loop
      vertex -5.187 28 14.003
      vertex 13.5 28 24.998
      vertex 0.688 28 14.003
    endloop
  endfacet
  facet normal 0 1 0
    outer loop
      vertex 13.5 28 24.998
      vertex -5.187 28 14.003
      vertex -31.5 28 24.998
    endloop
  endfacet
  facet normal 0 1 -0
    outer loop
      vertex -13.812 28 14.003
      vertex -31.5 28 24.998
      vertex -5.187 28 14.003
    endloop
  endfacet
  facet normal 0 1 -0
    outer loop
      vertex -14.502 28 13.149
      vertex -31.5 28 24.998
      vertex -13.812 28 14.003
    endloop
  endfacet
  facet normal 0 1 0
    outer loop
      vertex -31.5 28 2.5
      vertex -14.502 28 13.149
      vertex -14.502 28 2.5
    endloop
  endfacet
  facet normal 0 1 0
    outer loop
      vertex -14.502 28 13.149
      vertex -31.5 28 2.5
      vertex -31.5 28 24.998
    endloop
  endfacet
  facet normal -0 0 1
    outer loop
      vertex 10 -18.153 12.499
      vertex 14.252 -18.453 12.499
      vertex 14.252 -18.153 12.499
    endloop
  endfacet
  facet normal 0 0 1
    outer loop
      vertex 14.252 -18.453 12.499
      vertex 10 -18.153 12.499
      vertex 10 -18.453 12.499
    endloop
  endfacet
  facet normal 0 0 -1
    outer loop
      vertex 14.252 -13.451 12.499
      vertex 16 -4.449 12.499
      vertex 16 -13.451 12.499
    endloop
  endfacet
  facet normal -0 0 -1
    outer loop
      vertex 16 -4.449 12.499
      vertex 14.252 -13.451 12.499
      vertex 14.252 -4.449 12.499
    endloop
  endfacet
  facet normal 0 -0.707107 0.707107
    outer loop
      vertex -4.497 25.253 13.149
      vertex -0.00199986 25.253 13.149
      vertex -5.187 26.107 14.003
    endloop
  endfacet
  facet normal -0.707107 -0.707107 0
    outer loop
      vertex -31.5 -22 2.5
      vertex -34 -19.5 24.998
      vertex -34 -19.5 2.5
    endloop
  endfacet
  facet normal -0.707107 -0.707107 0
    outer loop
      vertex -34 -19.5 24.998
      vertex -31.5 -22 2.5
      vertex -31.5 -22 24.998
    endloop
  endfacet
  facet normal -0.707107 0.707107 0
    outer loop
      vertex -34 25.5 2.5
      vertex -31.5 28 24.998
      vertex -31.5 28 2.5
    endloop
  endfacet
  facet normal -0.707107 0.707107 0
    outer loop
      vertex -31.5 28 24.998
      vertex -34 25.5 2.5
      vertex -34 25.5 24.998
    endloop
  endfacet
  facet normal 0 1 -0
    outer loop
      vertex 10.003 -18.1 2.1
      vertex 10 -18.1 9.898
      vertex 10.003 -18.1 9.898
    endloop
  endfacet
  facet normal 0 1 0
    outer loop
      vertex 10 -18.1 9.898
      vertex 10.003 -18.1 2.1
      vertex 10 -18.1 2.1
    endloop
  endfacet
  facet normal 0 1 -0
    outer loop
      vertex 14.252 -18.153 9.898
      vertex 10 -18.153 12.499
      vertex 14.252 -18.153 12.499
    endloop
  endfacet
  facet normal 0 1 0
    outer loop
      vertex 10 -18.153 12.499
      vertex 14.252 -18.153 9.898
      vertex 10 -18.153 9.898
    endloop
  endfacet
  facet normal 0 0 1
    outer loop
      vertex 10.003 -18.1 9.898
      vertex 14.252 -13.451 9.898
      vertex 10.003 -13.451 9.898
    endloop
  endfacet
  facet normal 0 0 1
    outer loop
      vertex 14.252 -13.451 9.898
      vertex 10.003 -18.1 9.898
      vertex 14.252 -18.153 9.898
    endloop
  endfacet
  facet normal 0 0 1
    outer loop
      vertex 10 -18.153 9.898
      vertex 10.003 -18.1 9.898
      vertex 10 -18.1 9.898
    endloop
  endfacet
  facet normal 0 0 1
    outer loop
      vertex 10.003 -18.1 9.898
      vertex 10 -18.153 9.898
      vertex 14.252 -18.153 9.898
    endloop
  endfacet
  facet normal -1.14139e-07 -0.707107 0.707107
    outer loop
      vertex -0.00199986 25.253 13.149
      vertex 0.688 26.107 14.003
      vertex -4.497 27.002 14.898
    endloop
  endfacet
  facet normal 1.10117e-07 -0.707106 0.707107
    outer loop
      vertex -0.00199986 25.253 13.149
      vertex -4.497 27.002 14.898
      vertex -5.187 26.107 14.003
    endloop
  endfacet
  facet normal 0 -0.707106 0.707107
    outer loop
      vertex -4.497 25.253 13.149
      vertex -0.00199986 24.602 12.498
      vertex -0.00199986 25.253 13.149
    endloop
  endfacet
  facet normal 0 -0.707106 0.707107
    outer loop
      vertex -0.00199986 24.602 12.498
      vertex -4.497 25.253 13.149
      vertex -4.497 24.602 12.498
    endloop
  endfacet
  facet normal -1 0 0
    outer loop
      vertex 12.503 5.823 9.599
      vertex 12.503 20.099 12.498
      vertex 12.503 20.099 9.599
    endloop
  endfacet
  facet normal -1 -0 0
    outer loop
      vertex 12.503 20.099 12.498
      vertex 12.503 5.823 9.599
      vertex 12.503 5.823 12.498
    endloop
  endfacet
  facet normal -3.85054e-08 -0.707107 0.707107
    outer loop
      vertex -14.502 25.253 13.149
      vertex -13.812 26.107 14.003
      vertex -30.602 27.002 14.898
    endloop
  endfacet
  facet normal 0 -0.707106 0.707107
    outer loop
      vertex -4.497 27.002 14.898
      vertex -13.812 26.107 14.003
      vertex -5.187 26.107 14.003
    endloop
  endfacet
  facet normal 0 -0.707106 0.707107
    outer loop
      vertex -13.812 26.107 14.003
      vertex -4.497 27.002 14.898
      vertex -30.602 27.002 14.898
    endloop
  endfacet
  facet normal 1.91624e-08 -0.707107 0.707107
    outer loop
      vertex -14.502 25.253 13.149
      vertex -30.602 27.002 14.898
      vertex -30.602 24.602 12.498
    endloop
  endfacet
  facet normal 0 -0.707106 0.707107
    outer loop
      vertex -14.502 24.602 12.498
      vertex -14.502 25.253 13.149
      vertex -30.602 24.602 12.498
    endloop
  endfacet
  facet normal -0 0 1
    outer loop
      vertex 10.003 20.099 9.599
      vertex 12.503 5.823 9.599
      vertex 12.503 20.099 9.599
    endloop
  endfacet
  facet normal 0 0 1
    outer loop
      vertex 12.503 5.823 9.599
      vertex 10.003 20.099 9.599
      vertex 10.003 5.823 9.599
    endloop
  endfacet
  facet normal -0 0 1
    outer loop
      vertex 10.003 -4.449 7.498
      vertex 16 -13.451 7.498
      vertex 16 -4.449 7.498
    endloop
  endfacet
  facet normal 0 0 1
    outer loop
      vertex 16 -13.451 7.498
      vertex 10.003 -4.449 7.498
      vertex 10.003 -13.451 7.498
    endloop
  endfacet
  facet normal 0 1 -0
    outer loop
      vertex 12.503 5.823 9.599
      vertex 10.003 5.823 12.498
      vertex 12.503 5.823 12.498
    endloop
  endfacet
  facet normal 0 1 0
    outer loop
      vertex 10.003 5.823 12.498
      vertex 12.503 5.823 9.599
      vertex 10.003 5.823 9.599
    endloop
  endfacet
  facet normal 0 -1 0
    outer loop
      vertex 10.003 -4.449 9.898
      vertex 10.003 -4.449 7.498
      vertex 14.252 -4.449 9.898
    endloop
  endfacet
  facet normal 0 -1 0
    outer loop
      vertex 14.252 -4.449 9.898
      vertex 16 -4.449 12.499
      vertex 14.252 -4.449 12.499
    endloop
  endfacet
  facet normal 0 -1 0
    outer loop
      vertex 14.252 -4.449 9.898
      vertex 16 -4.449 7.498
      vertex 16 -4.449 12.499
    endloop
  endfacet
  facet normal 0 -1 0
    outer loop
      vertex 16 -4.449 7.498
      vertex 14.252 -4.449 9.898
      vertex 10.003 -4.449 7.498
    endloop
  endfacet
  facet normal 0 1 0
    outer loop
      vertex 16 -13.451 12.499
      vertex 14.252 -13.451 9.898
      vertex 14.252 -13.451 12.499
    endloop
  endfacet
  facet normal 0 1 -0
    outer loop
      vertex 16 -13.451 7.498
      vertex 14.252 -13.451 9.898
      vertex 16 -13.451 12.499
    endloop
  endfacet
  facet normal 0 1 0
    outer loop
      vertex 10.003 -13.451 7.498
      vertex 14.252 -13.451 9.898
      vertex 16 -13.451 7.498
    endloop
  endfacet
  facet normal 0 1 0
    outer loop
      vertex 14.252 -13.451 9.898
      vertex 10.003 -13.451 7.498
      vertex 10.003 -13.451 9.898
    endloop
  endfacet
  facet normal 0 -1 0
    outer loop
      vertex 10 -21.4 2.1
      vertex 10.003 -21.4 13.149
      vertex 10 -21.4 13.1527
    endloop
  endfacet
  facet normal 0 -1 -0
    outer loop
      vertex 10.003 -21.4 13.149
      vertex 10 -21.4 2.1
      vertex 10.003 -21.4 2.1
    endloop
  endfacet
  facet normal 0.777839 0 -0.628464
    outer loop
      vertex 0.688 26.107 14.003
      vertex -0.00199986 28 13.149
      vertex 0.688 28 14.003
    endloop
  endfacet
  facet normal 0.777839 0 -0.628464
    outer loop
      vertex -0.00199986 28 13.149
      vertex 0.688 26.107 14.003
      vertex -0.00199986 25.253 13.149
    endloop
  endfacet
  facet normal 0 1 -0
    outer loop
      vertex 12.603 1.2 12.498
      vertex 10 1.2 14.8
      vertex 14.905 1.2 14.8
    endloop
  endfacet
  facet normal 0 1 -0
    outer loop
      vertex 10.003 1.2 12.498
      vertex 10 1.2 14.8
      vertex 12.603 1.2 12.498
    endloop
  endfacet
  facet normal 0 1 0
    outer loop
      vertex 10 1.2 2.1
      vertex 10.003 1.2 12.498
      vertex 10.003 1.2 2.1
    endloop
  endfacet
  facet normal 0 1 0
    outer loop
      vertex 10.003 1.2 12.498
      vertex 10 1.2 2.1
      vertex 10 1.2 14.8
    endloop
  endfacet
  facet normal -0.77778 -0 -0.628537
    outer loop
      vertex 10.003 -21.4 13.149
      vertex 10.003 -22 13.149
      vertex 10 -21.4 13.1527
    endloop
  endfacet
  facet normal -1 0 0
    outer loop
      vertex 10.003 20.099 9.599
      vertex 10.003 28 2.5
      vertex 10.003 25.5 0
    endloop
  endfacet
  facet normal -1 0 0
    outer loop
      vertex 10.003 28 2.5
      vertex 10.003 24.602 12.498
      vertex 10.003 28 13.149
    endloop
  endfacet
  facet normal -1 -0 0
    outer loop
      vertex 10.003 28 13.149
      vertex 10.003 24.602 12.498
      vertex 10.003 25.253 13.149
    endloop
  endfacet
  facet normal -1 0 0
    outer loop
      vertex 10.003 28 2.5
      vertex 10.003 20.099 9.599
      vertex 10.003 24.602 12.498
    endloop
  endfacet
  facet normal -1 0 0
    outer loop
      vertex 10.003 1.2 2.1
      vertex 10.003 20.099 9.599
      vertex 10.003 25.5 0
    endloop
  endfacet
  facet normal -1 0 0
    outer loop
      vertex 10.003 1.2 12.498
      vertex 10.003 5.823 9.599
      vertex 10.003 1.2 2.1
    endloop
  endfacet
  facet normal -1 -0 0
    outer loop
      vertex 10.003 20.099 9.599
      vertex 10.003 1.2 2.1
      vertex 10.003 5.823 9.599
    endloop
  endfacet
  facet normal -1 0 0
    outer loop
      vertex 10.003 -19.5 0
      vertex 10.003 1.2 2.1
      vertex 10.003 25.5 0
    endloop
  endfacet
  facet normal -1 0 0
    outer loop
      vertex 10.003 0.0999994 2.1
      vertex 10.003 -4.449 7.498
      vertex 10.003 0.0999994 9.898
    endloop
  endfacet
  facet normal -1 0 0
    outer loop
      vertex 10.003 0.0999994 2.1
      vertex 10.003 -13.451 7.498
      vertex 10.003 -4.449 7.498
    endloop
  endfacet
  facet normal -1 0 0
    outer loop
      vertex 10.003 -18.1 9.898
      vertex 10.003 -13.451 7.498
      vertex 10.003 -18.1 2.1
    endloop
  endfacet
  facet normal -1 0 0
    outer loop
      vertex 10.003 0.0999994 2.1
      vertex 10.003 -18.1 2.1
      vertex 10.003 -13.451 7.498
    endloop
  endfacet
  facet normal -1 -0 0
    outer loop
      vertex 10.003 1.2 2.1
      vertex 10.003 -19.5 0
      vertex 10.003 0.0999994 2.1
    endloop
  endfacet
  facet normal -1 -0 0
    outer loop
      vertex 10.003 0.0999994 2.1
      vertex 10.003 -19.5 0
      vertex 10.003 -18.1 2.1
    endloop
  endfacet
  facet normal -1 0 0
    outer loop
      vertex 10.003 -19.5 0
      vertex 10.003 -21.4 2.1
      vertex 10.003 -18.1 2.1
    endloop
  endfacet
  facet normal -1 0 0
    outer loop
      vertex 10.003 -22 2.5
      vertex 10.003 -21.4 2.1
      vertex 10.003 -19.5 0
    endloop
  endfacet
  facet normal -1 0 0
    outer loop
      vertex 10.003 -22 2.5
      vertex 10.003 -21.4 13.149
      vertex 10.003 -21.4 2.1
    endloop
  endfacet
  facet normal -1 -0 0
    outer loop
      vertex 10.003 -21.4 13.149
      vertex 10.003 -22 2.5
      vertex 10.003 -22 13.149
    endloop
  endfacet
  facet normal -1 -0 0
    outer loop
      vertex 10.003 24.602 12.498
      vertex 10.003 20.099 9.599
      vertex 10.003 20.099 12.498
    endloop
  endfacet
  facet normal -1 0 0
    outer loop
      vertex 10.003 5.823 9.599
      vertex 10.003 1.2 12.498
      vertex 10.003 5.823 12.498
    endloop
  endfacet
  facet normal -1 -0 0
    outer loop
      vertex 10.003 0.0999994 9.898
      vertex 10.003 -4.449 7.498
      vertex 10.003 -4.449 9.898
    endloop
  endfacet
  facet normal -1 0 0
    outer loop
      vertex 10.003 -13.451 7.498
      vertex 10.003 -18.1 9.898
      vertex 10.003 -13.451 9.898
    endloop
  endfacet
  facet normal 0 -1 0
    outer loop
      vertex 10 0.0999994 2.1
      vertex 10.003 0.0999994 9.898
      vertex 10 0.0999994 9.898
    endloop
  endfacet
  facet normal 0 -1 -0
    outer loop
      vertex 10.003 0.0999994 9.898
      vertex 10 0.0999994 2.1
      vertex 10.003 0.0999994 2.1
    endloop
  endfacet
  facet normal 0 -1 0
    outer loop
      vertex 10 0.151999 9.898
      vertex 14.252 0.151999 12.499
      vertex 10 0.151999 12.499
    endloop
  endfacet
  facet normal 0 -1 -0
    outer loop
      vertex 14.252 0.151999 12.499
      vertex 10 0.151999 9.898
      vertex 14.252 0.151999 9.898
    endloop
  endfacet
  facet normal -0 -1 0
    outer loop
      vertex 14.905 0.0999994 14.8
      vertex 14.252 0.0999994 14.8
      vertex 14.252 0.0999994 14.147
    endloop
  endfacet
  facet normal 0 -1 0
    outer loop
      vertex 10 0.252 12.499
      vertex 14.252 0.252 14.8
      vertex 10 0.252 14.8
    endloop
  endfacet
  facet normal 0 -1 -0
    outer loop
      vertex 14.252 0.252 14.8
      vertex 10 0.252 12.499
      vertex 14.252 0.252 12.499
    endloop
  endfacet
  facet normal -0 0 1
    outer loop
      vertex 10 0.252 12.499
      vertex 14.252 0.151999 12.499
      vertex 14.252 0.252 12.499
    endloop
  endfacet
  facet normal 0 0 1
    outer loop
      vertex 14.252 0.151999 12.499
      vertex 10 0.252 12.499
      vertex 10 0.151999 12.499
    endloop
  endfacet
  facet normal 0 0 1
    outer loop
      vertex 14.252 0.151999 9.898
      vertex 10.003 0.0999994 9.898
      vertex 14.252 -4.449 9.898
    endloop
  endfacet
  facet normal -0 0 1
    outer loop
      vertex 10 0.151999 9.898
      vertex 10.003 0.0999994 9.898
      vertex 14.252 0.151999 9.898
    endloop
  endfacet
  facet normal 0 0 1
    outer loop
      vertex 10.003 0.0999994 9.898
      vertex 10 0.151999 9.898
      vertex 10 0.0999994 9.898
    endloop
  endfacet
  facet normal 0 0 1
    outer loop
      vertex 14.252 -4.449 9.898
      vertex 10.003 0.0999994 9.898
      vertex 10.003 -4.449 9.898
    endloop
  endfacet
  facet normal 0 0.707107 -0.707107
    outer loop
      vertex 13.5 25.5 0
      vertex 10.003 28 2.5
      vertex 13.5 28 2.5
    endloop
  endfacet
  facet normal 0 0.707107 -0.707107
    outer loop
      vertex 10.003 28 2.5
      vertex 13.5 25.5 0
      vertex 10.003 25.5 0
    endloop
  endfacet
  facet normal 0.57735 0.57735 -0.57735
    outer loop
      vertex 13.5 28 2.5
      vertex 16 25.5 2.5
      vertex 13.5 25.5 0
    endloop
  endfacet
  facet normal 0.707107 0.707107 0
    outer loop
      vertex 16 25.5 24.998
      vertex 13.5 28 2.5
      vertex 13.5 28 24.998
    endloop
  endfacet
  facet normal 0.707107 0.707107 0
    outer loop
      vertex 13.5 28 2.5
      vertex 16 25.5 24.998
      vertex 16 25.5 2.5
    endloop
  endfacet
  facet normal 0.707107 0 -0.707107
    outer loop
      vertex 15.003 -16.989 21.627
      vertex 14.927 22.992 21.551
      vertex 15.003 22.992 21.627
    endloop
  endfacet
  facet normal 0.707107 0 -0.707107
    outer loop
      vertex 14.927 22.992 21.551
      vertex 15.003 -16.989 21.627
      vertex 14.927 -16.989 21.551
    endloop
  endfacet
  facet normal -0.707107 2.76392e-08 0.707107
    outer loop
      vertex 14.905 1.2 14.8
      vertex 15.003 24.602 14.898
      vertex 12.603 24.602 12.498
    endloop
  endfacet
  facet normal -0.707107 0 0.707107
    outer loop
      vertex 14.905 1.2 14.8
      vertex 12.603 24.602 12.498
      vertex 12.603 1.2 12.498
    endloop
  endfacet
  facet normal -0.57735 -0.57735 0.57735
    outer loop
      vertex 15.003 24.602 14.898
      vertex 12.603 27.002 14.898
      vertex 12.603 24.602 12.498
    endloop
  endfacet
  facet normal -1.1866e-07 -0.707107 0.707107
    outer loop
      vertex 12.603 24.602 12.498
      vertex 12.603 27.002 14.898
      vertex 10.003 25.253 13.149
    endloop
  endfacet
  facet normal 0 -1 0
    outer loop
      vertex -4.497 27.002 14.898
      vertex -30.602 27.002 24.998
      vertex -30.602 27.002 14.898
    endloop
  endfacet
  facet normal 0 -1 0
    outer loop
      vertex -30.602 27.002 24.998
      vertex -4.497 27.002 14.898
      vertex 12.603 27.002 24.998
    endloop
  endfacet
  facet normal 0 -1 -0
    outer loop
      vertex 12.603 27.002 24.998
      vertex -4.497 27.002 14.898
      vertex 12.603 27.002 14.898
    endloop
  endfacet
  facet normal -0.777839 0 -0.628464
    outer loop
      vertex -4.497 28 13.149
      vertex -5.187 26.107 14.003
      vertex -5.187 28 14.003
    endloop
  endfacet
  facet normal -0.777839 0 -0.628464
    outer loop
      vertex -5.187 26.107 14.003
      vertex -4.497 28 13.149
      vertex -4.497 25.253 13.149
    endloop
  endfacet
  facet normal 0.777839 0 -0.628464
    outer loop
      vertex -13.812 26.107 14.003
      vertex -14.502 28 13.149
      vertex -13.812 28 14.003
    endloop
  endfacet
  facet normal 0.777839 0 -0.628464
    outer loop
      vertex -14.502 28 13.149
      vertex -13.812 26.107 14.003
      vertex -14.502 25.253 13.149
    endloop
  endfacet
  facet normal 0 0 -1
    outer loop
      vertex -13.812 26.107 14.003
      vertex -5.187 28 14.003
      vertex -5.187 26.107 14.003
    endloop
  endfacet
  facet normal -0 0 -1
    outer loop
      vertex -5.187 28 14.003
      vertex -13.812 26.107 14.003
      vertex -13.812 28 14.003
    endloop
  endfacet
  facet normal 0 0 -1
    outer loop
      vertex 0.688 26.107 14.003
      vertex 9.313 28 14.003
      vertex 9.313 26.107 14.003
    endloop
  endfacet
  facet normal -0 0 -1
    outer loop
      vertex 9.313 28 14.003
      vertex 0.688 26.107 14.003
      vertex 0.688 28 14.003
    endloop
  endfacet
  facet normal 0.707107 -0 0.707107
    outer loop
      vertex 14.927 -16.989 24.797
      vertex 15.003 22.992 24.721
      vertex 14.927 22.992 24.797
    endloop
  endfacet
  facet normal 0.707107 0 0.707107
    outer loop
      vertex 15.003 22.992 24.721
      vertex 14.927 -16.989 24.797
      vertex 15.003 -16.989 24.721
    endloop
  endfacet
  facet normal 0 0 1
    outer loop
      vertex -14.502 24.602 12.498
      vertex -18.752 23.203 12.498
      vertex -14.502 23.203 12.498
    endloop
  endfacet
  facet normal 0 0 1
    outer loop
      vertex -18.752 23.203 12.498
      vertex -21.503 21.002 12.498
      vertex -18.752 21.002 12.498
    endloop
  endfacet
  facet normal 0 0 1
    outer loop
      vertex -30.602 24.602 12.498
      vertex -21.503 7.701 12.498
      vertex -21.503 21.002 12.498
    endloop
  endfacet
  facet normal 0 0 1
    outer loop
      vertex -30.602 -18.602 12.498
      vertex -29.303 0.151999 12.498
      vertex -30.602 24.602 12.498
    endloop
  endfacet
  facet normal 0 0 1
    outer loop
      vertex -21.503 7.701 12.498
      vertex -30.602 24.602 12.498
      vertex -29.303 0.151999 12.498
    endloop
  endfacet
  facet normal 0 0 1
    outer loop
      vertex -18.752 23.203 12.498
      vertex -30.602 24.602 12.498
      vertex -21.503 21.002 12.498
    endloop
  endfacet
  facet normal -0 0 1
    outer loop
      vertex -30.602 24.602 12.498
      vertex -18.752 23.203 12.498
      vertex -14.502 24.602 12.498
    endloop
  endfacet
  facet normal 0 0 1
    outer loop
      vertex -18.752 7.701 12.498
      vertex -21.503 7.701 12.498
      vertex -18.752 2.698 12.498
    endloop
  endfacet
  facet normal -0 0 1
    outer loop
      vertex -18.752 2.698 12.498
      vertex -0.00199986 0.151999 12.498
      vertex -0.00199986 2.698 12.498
    endloop
  endfacet
  facet normal 0 0 1
    outer loop
      vertex -18.752 2.698 12.498
      vertex -29.303 0.151999 12.498
      vertex -0.00199986 0.151999 12.498
    endloop
  endfacet
  facet normal 0 0 1
    outer loop
      vertex -29.303 0.151999 12.498
      vertex -18.752 2.698 12.498
      vertex -21.503 7.701 12.498
    endloop
  endfacet
  facet normal -0 0 1
    outer loop
      vertex -29.303 -18.153 12.498
      vertex -0.00199986 -18.602 12.498
      vertex -0.00199986 -18.153 12.498
    endloop
  endfacet
  facet normal 0 0 1
    outer loop
      vertex -29.303 -18.153 12.498
      vertex -30.602 -18.602 12.498
      vertex -0.00199986 -18.602 12.498
    endloop
  endfacet
  facet normal 0 0 1
    outer loop
      vertex -29.303 0.151999 12.498
      vertex -30.602 -18.602 12.498
      vertex -29.303 -18.153 12.498
    endloop
  endfacet
  facet normal -0 0 1
    outer loop
      vertex -4.497 24.602 12.498
      vertex -0.00199986 23.203 12.498
      vertex -0.00199986 24.602 12.498
    endloop
  endfacet
  facet normal 0 0 1
    outer loop
      vertex -0.00199986 23.203 12.498
      vertex -4.497 24.602 12.498
      vertex -4.497 23.203 12.498
    endloop
  endfacet
  facet normal 0 -0.707107 -0.707107
    outer loop
      vertex -31.5 -19.5 0
      vertex -0.00199986 -22 2.5
      vertex -31.5 -22 2.5
    endloop
  endfacet
  facet normal 0 -0.707107 -0.707107
    outer loop
      vertex -0.00199986 -22 2.5
      vertex -31.5 -19.5 0
      vertex -0.00199986 -19.5 0
    endloop
  endfacet
  facet normal -2.15226e-08 0.70696 0.707254
    outer loop
      vertex 10 -20.905 14.8
      vertex 0.688 -20.1076 14.003
      vertex -30.602 -21.003 14.898
    endloop
  endfacet
  facet normal 0 -0.707106 0.707107
    outer loop
      vertex 12.603 27.002 14.898
      vertex 0.688 26.107 14.003
      vertex 9.313 26.107 14.003
    endloop
  endfacet
  facet normal 0 -0.707106 0.707107
    outer loop
      vertex 0.688 26.107 14.003
      vertex 12.603 27.002 14.898
      vertex -4.497 27.002 14.898
    endloop
  endfacet
  facet normal 0 0 1
    outer loop
      vertex -14.502 23.203 3.598
      vertex -18.752 23.203 3.598
      vertex -14.502 2.702 3.598
    endloop
  endfacet
  facet normal -0 0 1
    outer loop
      vertex -4.497 23.203 3.598
      vertex -0.00199986 2.698 3.598
      vertex -0.00199986 23.203 3.598
    endloop
  endfacet
  facet normal -0 0 1
    outer loop
      vertex -4.497 2.702 3.598
      vertex -0.00199986 2.698 3.598
      vertex -4.497 23.203 3.598
    endloop
  endfacet
  facet normal -0 0 1
    outer loop
      vertex -14.502 2.702 3.598
      vertex -0.00199986 2.698 3.598
      vertex -4.497 2.702 3.598
    endloop
  endfacet
  facet normal 0 0 1
    outer loop
      vertex -14.502 2.702 3.598
      vertex -18.752 2.698 3.598
      vertex -0.00199986 2.698 3.598
    endloop
  endfacet
  facet normal 0 0 1
    outer loop
      vertex -18.752 2.698 3.598
      vertex -14.502 2.702 3.598
      vertex -18.752 23.203 3.598
    endloop
  endfacet
  facet normal 0 0 1
    outer loop
      vertex -0.00199986 -4.498 0.997999
      vertex -10.5 -9 0.997999
      vertex -0.00199986 -13.403 0.997999
    endloop
  endfacet
  facet normal 0 0 1
    outer loop
      vertex -0.00199986 -4.498 0.997999
      vertex -10.889 -7.16968 0.997999
      vertex -10.5 -9 0.997999
    endloop
  endfacet
  facet normal 0 0 1
    outer loop
      vertex -0.00199986 -4.498 0.997999
      vertex -11.9889 -5.65585 0.997999
      vertex -10.889 -7.16968 0.997999
    endloop
  endfacet
  facet normal 0 0 1
    outer loop
      vertex -0.00199986 -4.498 0.997999
      vertex -13.6094 -4.72025 0.997999
      vertex -11.9889 -5.65585 0.997999
    endloop
  endfacet
  facet normal 0 0 1
    outer loop
      vertex -0.00199986 -4.498 0.997999
      vertex -15.4704 -4.52465 0.997999
      vertex -13.6094 -4.72025 0.997999
    endloop
  endfacet
  facet normal 0 0 1
    outer loop
      vertex -19.4017 -8.0644 0.997999
      vertex -29.303 -4.498 0.997999
      vertex -19.4017 -9.9356 0.997999
    endloop
  endfacet
  facet normal 0 0 1
    outer loop
      vertex -18.6406 -6.35497 0.997999
      vertex -29.303 -4.498 0.997999
      vertex -19.4017 -8.0644 0.997999
    endloop
  endfacet
  facet normal 0 0 1
    outer loop
      vertex -17.25 -5.10289 0.997999
      vertex -29.303 -4.498 0.997999
      vertex -18.6406 -6.35497 0.997999
    endloop
  endfacet
  facet normal 0 0 1
    outer loop
      vertex -15.4704 -4.52465 0.997999
      vertex -29.303 -4.498 0.997999
      vertex -17.25 -5.10289 0.997999
    endloop
  endfacet
  facet normal -0 0 1
    outer loop
      vertex -29.303 -4.498 0.997999
      vertex -15.4704 -4.52465 0.997999
      vertex -0.00199986 -4.498 0.997999
    endloop
  endfacet
  facet normal -0 0 1
    outer loop
      vertex -10.889 -10.8303 0.997999
      vertex -0.00199986 -13.403 0.997999
      vertex -10.5 -9 0.997999
    endloop
  endfacet
  facet normal -0 0 1
    outer loop
      vertex -11.9889 -12.3442 0.997999
      vertex -0.00199986 -13.403 0.997999
      vertex -10.889 -10.8303 0.997999
    endloop
  endfacet
  facet normal -0 0 1
    outer loop
      vertex -13.6094 -13.2798 0.997999
      vertex -0.00199986 -13.403 0.997999
      vertex -11.9889 -12.3442 0.997999
    endloop
  endfacet
  facet normal 0 0 1
    outer loop
      vertex -0.00199986 -13.403 0.997999
      vertex -13.6094 -13.2798 0.997999
      vertex -14.782 -13.403 0.997999
    endloop
  endfacet
  facet normal 0 0 1
    outer loop
      vertex -29.303 -13.403 0.997999
      vertex -19.4017 -9.9356 0.997999
      vertex -29.303 -4.498 0.997999
    endloop
  endfacet
  facet normal 0 0 1
    outer loop
      vertex -19.4017 -9.9356 0.997999
      vertex -29.303 -13.403 0.997999
      vertex -18.6406 -11.645 0.997999
    endloop
  endfacet
  facet normal 0 0 1
    outer loop
      vertex -17.25 -12.8971 0.997999
      vertex -29.303 -13.403 0.997999
      vertex -15.693 -13.403 0.997999
    endloop
  endfacet
  facet normal 0 0 1
    outer loop
      vertex -18.6406 -11.645 0.997999
      vertex -29.303 -13.403 0.997999
      vertex -17.25 -12.8971 0.997999
    endloop
  endfacet
  facet normal 0 1 -0
    outer loop
      vertex -4.497 2.702 0
      vertex -14.502 2.702 3.598
      vertex -4.497 2.702 3.598
    endloop
  endfacet
  facet normal 0 1 0
    outer loop
      vertex -14.502 2.702 3.598
      vertex -4.497 2.702 0
      vertex -14.502 2.702 0
    endloop
  endfacet
  facet normal 0 1 -0
    outer loop
      vertex -0.00199986 -18.153 9.898
      vertex -29.303 -18.153 12.498
      vertex -0.00199986 -18.153 12.498
    endloop
  endfacet
  facet normal 0 1 0
    outer loop
      vertex -29.303 -18.153 12.498
      vertex -0.00199986 -18.153 9.898
      vertex -29.303 -18.153 9.898
    endloop
  endfacet
  facet normal -1 0 0
    outer loop
      vertex -4.497 23.203 3.598
      vertex -4.497 28 2.5
      vertex -4.497 25.5 0
    endloop
  endfacet
  facet normal -1 0 -0
    outer loop
      vertex -4.497 24.602 12.498
      vertex -4.497 28 2.5
      vertex -4.497 23.203 3.598
    endloop
  endfacet
  facet normal -1 0 0
    outer loop
      vertex -4.497 28 2.5
      vertex -4.497 24.602 12.498
      vertex -4.497 28 13.149
    endloop
  endfacet
  facet normal -1 -0 0
    outer loop
      vertex -4.497 28 13.149
      vertex -4.497 24.602 12.498
      vertex -4.497 25.253 13.149
    endloop
  endfacet
  facet normal -1 0 0
    outer loop
      vertex -4.497 2.702 0
      vertex -4.497 23.203 3.598
      vertex -4.497 25.5 0
    endloop
  endfacet
  facet normal -1 -0 0
    outer loop
      vertex -4.497 23.203 3.598
      vertex -4.497 2.702 0
      vertex -4.497 2.702 3.598
    endloop
  endfacet
  facet normal -1 -0 0
    outer loop
      vertex -4.497 24.602 12.498
      vertex -4.497 23.203 3.598
      vertex -4.497 23.203 12.498
    endloop
  endfacet
  facet normal 0 -1 0
    outer loop
      vertex -29.303 0.151999 9.898
      vertex -0.00199986 0.151999 12.498
      vertex -29.303 0.151999 12.498
    endloop
  endfacet
  facet normal 0 -1 -0
    outer loop
      vertex -0.00199986 0.151999 12.498
      vertex -29.303 0.151999 9.898
      vertex -0.00199986 0.151999 9.898
    endloop
  endfacet
  facet normal 0 1 -0
    outer loop
      vertex -0.00199986 2.698 3.598
      vertex -18.752 2.698 12.498
      vertex -0.00199986 2.698 12.498
    endloop
  endfacet
  facet normal 0 1 0
    outer loop
      vertex -18.752 2.698 12.498
      vertex -0.00199986 2.698 3.598
      vertex -18.752 2.698 3.598
    endloop
  endfacet
  facet normal -0.978148 -0.207911 0
    outer loop
      vertex -10.5 -9 0
      vertex -10.889 -7.16968 0.997999
      vertex -10.889 -7.16968 0
    endloop
  endfacet
  facet normal -0.978148 -0.207911 0
    outer loop
      vertex -10.889 -7.16968 0.997999
      vertex -10.5 -9 0
      vertex -10.5 -9 0.997999
    endloop
  endfacet
  facet normal 1 -0 0
    outer loop
      vertex -19.4017 -9.9356 0.997999
      vertex -19.4017 -8.0644 0
      vertex -19.4017 -8.0644 0.997999
    endloop
  endfacet
  facet normal 1 0 0
    outer loop
      vertex -19.4017 -8.0644 0
      vertex -19.4017 -9.9356 0.997999
      vertex -19.4017 -9.9356 0
    endloop
  endfacet
  facet normal -0.104529 -0.994522 0
    outer loop
      vertex -15.4704 -4.52465 0
      vertex -13.6094 -4.72025 0.997999
      vertex -15.4704 -4.52465 0.997999
    endloop
  endfacet
  facet normal -0.104529 -0.994522 -0
    outer loop
      vertex -13.6094 -4.72025 0.997999
      vertex -15.4704 -4.52465 0
      vertex -13.6094 -4.72025 0
    endloop
  endfacet
  facet normal -0.809017 -0.587785 0
    outer loop
      vertex -10.889 -7.16968 0
      vertex -11.9889 -5.65585 0.997999
      vertex -11.9889 -5.65585 0
    endloop
  endfacet
  facet normal -0.809017 -0.587785 0
    outer loop
      vertex -11.9889 -5.65585 0.997999
      vertex -10.889 -7.16968 0
      vertex -10.889 -7.16968 0.997999
    endloop
  endfacet
  facet normal -0.104529 0.994522 0
    outer loop
      vertex -13.6094 -13.2798 0.997999
      vertex -13.6094 -13.2798 0
      vertex -14.782 -13.403 0.997999
    endloop
  endfacet
  facet normal -0.104529 0.994522 0
    outer loop
      vertex -14.782 -13.403 7.498
      vertex -14.782 -13.403 0.997999
      vertex -15.2387 -13.451 7.498
    endloop
  endfacet
  facet normal -0.104529 0.994522 0
    outer loop
      vertex -15.2387 -13.451 7.498
      vertex -15.4704 -13.4753 9.898
      vertex -15.2387 -13.451 9.898
    endloop
  endfacet
  facet normal -0.104529 0.994522 7.12357e-09
    outer loop
      vertex -15.4704 -13.4753 0
      vertex -15.2387 -13.451 7.498
      vertex -14.782 -13.403 0.997999
    endloop
  endfacet
  facet normal -0.104529 0.994522 0
    outer loop
      vertex -15.2387 -13.451 7.498
      vertex -15.4704 -13.4753 0
      vertex -15.4704 -13.4753 9.898
    endloop
  endfacet
  facet normal -0.104529 0.994522 -3.46677e-08
    outer loop
      vertex -15.4704 -13.4753 0
      vertex -14.782 -13.403 0.997999
      vertex -13.6094 -13.2798 0
    endloop
  endfacet
  facet normal -0.5 0.866025 0
    outer loop
      vertex -11.9889 -12.3442 0
      vertex -13.6094 -13.2798 0.997999
      vertex -11.9889 -12.3442 0.997999
    endloop
  endfacet
  facet normal -0.5 0.866025 0
    outer loop
      vertex -13.6094 -13.2798 0.997999
      vertex -11.9889 -12.3442 0
      vertex -13.6094 -13.2798 0
    endloop
  endfacet
  facet normal -0.5 -0.866025 0
    outer loop
      vertex -13.6094 -4.72025 0
      vertex -11.9889 -5.65585 0.997999
      vertex -13.6094 -4.72025 0.997999
    endloop
  endfacet
  facet normal -0.5 -0.866025 -0
    outer loop
      vertex -11.9889 -5.65585 0.997999
      vertex -13.6094 -4.72025 0
      vertex -11.9889 -5.65585 0
    endloop
  endfacet
  facet normal 0.669131 -0.743145 0
    outer loop
      vertex -18.6406 -6.35497 0
      vertex -17.25 -5.10289 0.997999
      vertex -18.6406 -6.35497 0.997999
    endloop
  endfacet
  facet normal 0.669131 -0.743145 0
    outer loop
      vertex -17.25 -5.10289 0.997999
      vertex -18.6406 -6.35497 0
      vertex -17.25 -5.10289 0
    endloop
  endfacet
  facet normal 0.913545 -0.406737 0
    outer loop
      vertex -19.4017 -8.0644 0.997999
      vertex -18.6406 -6.35497 0
      vertex -18.6406 -6.35497 0.997999
    endloop
  endfacet
  facet normal 0.913545 -0.406737 0
    outer loop
      vertex -18.6406 -6.35497 0
      vertex -19.4017 -8.0644 0.997999
      vertex -19.4017 -8.0644 0
    endloop
  endfacet
  facet normal 0.309017 -0.951056 0
    outer loop
      vertex -17.25 -5.10289 0
      vertex -15.4704 -4.52465 0.997999
      vertex -17.25 -5.10289 0.997999
    endloop
  endfacet
  facet normal 0.309017 -0.951056 0
    outer loop
      vertex -15.4704 -4.52465 0.997999
      vertex -17.25 -5.10289 0
      vertex -15.4704 -4.52465 0
    endloop
  endfacet
  facet normal 0.309018 0.951056 0
    outer loop
      vertex -15.4704 -13.4753 9.898
      vertex -15.5453 -13.451 7.498
      vertex -15.5453 -13.451 9.898
    endloop
  endfacet
  facet normal 0.309017 0.951057 0
    outer loop
      vertex -15.5453 -13.451 7.498
      vertex -15.693 -13.403 0.997999
      vertex -15.693 -13.403 7.498
    endloop
  endfacet
  facet normal 0.309018 0.951056 -0
    outer loop
      vertex -15.4704 -13.4753 0
      vertex -15.5453 -13.451 7.498
      vertex -15.4704 -13.4753 9.898
    endloop
  endfacet
  facet normal 0.309017 0.951056 -9.68381e-09
    outer loop
      vertex -15.5453 -13.451 7.498
      vertex -15.4704 -13.4753 0
      vertex -15.693 -13.403 0.997999
    endloop
  endfacet
  facet normal 0.309017 0.951056 -4.18162e-08
    outer loop
      vertex -17.25 -12.8971 0
      vertex -15.693 -13.403 0.997999
      vertex -15.4704 -13.4753 0
    endloop
  endfacet
  facet normal 0.309017 0.951056 0
    outer loop
      vertex -15.693 -13.403 0.997999
      vertex -17.25 -12.8971 0
      vertex -17.25 -12.8971 0.997999
    endloop
  endfacet
  facet normal -0.809017 0.587785 0
    outer loop
      vertex -11.9889 -12.3442 0
      vertex -10.889 -10.8303 0.997999
      vertex -10.889 -10.8303 0
    endloop
  endfacet
  facet normal -0.809017 0.587785 0
    outer loop
      vertex -10.889 -10.8303 0.997999
      vertex -11.9889 -12.3442 0
      vertex -11.9889 -12.3442 0.997999
    endloop
  endfacet
  facet normal -0.978148 0.207911 0
    outer loop
      vertex -10.889 -10.8303 0
      vertex -10.5 -9 0.997999
      vertex -10.5 -9 0
    endloop
  endfacet
  facet normal -0.978148 0.207911 0
    outer loop
      vertex -10.5 -9 0.997999
      vertex -10.889 -10.8303 0
      vertex -10.889 -10.8303 0.997999
    endloop
  endfacet
  facet normal 0.669131 0.743145 -0
    outer loop
      vertex -17.25 -12.8971 0
      vertex -18.6406 -11.645 0.997999
      vertex -17.25 -12.8971 0.997999
    endloop
  endfacet
  facet normal 0.669131 0.743145 0
    outer loop
      vertex -18.6406 -11.645 0.997999
      vertex -17.25 -12.8971 0
      vertex -18.6406 -11.645 0
    endloop
  endfacet
  facet normal 0.913545 0.406737 0
    outer loop
      vertex -18.6406 -11.645 0.997999
      vertex -19.4017 -9.9356 0
      vertex -19.4017 -9.9356 0.997999
    endloop
  endfacet
  facet normal 0.913545 0.406737 0
    outer loop
      vertex -19.4017 -9.9356 0
      vertex -18.6406 -11.645 0.997999
      vertex -18.6406 -11.645 0
    endloop
  endfacet
endsolid OpenSCAD_Model
