<?xml version="1.0" encoding="utf-8"?>
<!-- Generator: Adobe Illustrator 24.2.3, SVG Export Plug-In . SVG Version: 6.00 Build 0)  -->
<svg version="1.1" id="Calque_1" xmlns="http://www.w3.org/2000/svg" xmlns:xlink="http://www.w3.org/1999/xlink" x="0px" y="0px"
	 viewBox="0 0 138.13 142.29" style="enable-background:new 0 0 138.13 142.29;" xml:space="preserve">
<style type="text/css">
	.st0{fill:none;stroke:#E52521;stroke-width:8.000000e-03;stroke-miterlimit:11.339;}
	.st1{fill-rule:evenodd;clip-rule:evenodd;fill:#020203;}
	.st2{fill:#020203;}
</style>
<path class="st0" d="M125.77,122.18v-18.43V90.99V79.65V62.64V51.3V38.54V20.12l-5.67-5.67H18.03l-5.67,5.67v18.42V51.3v11.34v17.01
	v11.34v12.76v18.43l5.67,5.67H120.1L125.77,122.18 M117.66,62.64v17.01v11.34H32.04V79.65V62.64V51.3h85.61V62.64z"/>
<g>
	<path class="st1" d="M123.04,102.05c-0.1,0.65-0.06,1.39-0.08,2.13c-0.02,0.5-0.15,0.57-0.55,0.31c-0.69-0.46-1.38-0.92-2.11-1.29
		c-0.36-0.19-0.34-0.37,0.03-0.57c0.68-0.37,1.36-0.74,2.04-1.1C123,101.18,123.07,101.23,123.04,102.05"/>
	<path class="st1" d="M108.32,110.25c0.75,0.3,2.07,0.14,2.17,0.89c0.09,0.71-1.13,1.18-1.74,1.79c-0.2,0.2-0.4,0.04-0.45-0.18
		c-0.17-0.71-0.32-1.42-0.46-2.13C107.77,110.24,108,110.17,108.32,110.25"/>
	<path class="st1" d="M124.67,94.78c-0.14,0.57-0.28,1.13-0.43,1.7c-0.14,0.5-0.43,0.5-0.77,0.18c-0.17-0.16-0.33-0.34-0.46-0.53
		c-0.26-0.41-1.16-0.76-0.8-1.12c0.51-0.51,1.42-0.61,2.2-0.71C124.68,94.28,124.67,94.56,124.67,94.78"/>
	<path class="st1" d="M103.74,107.4c-0.07-0.06-0.19-0.11-0.24-0.2c-0.36-0.7-0.73-1.4-1.05-2.11c-0.18-0.4,0.03-0.67,0.44-0.6
		c0.92,0.14,1.21-0.42,1.46-1.14c0.19-0.53,0.19-1.36,0.76-1.45c0.5-0.08,0.77,0.7,1.13,1.11c0.1,0.11,0.19,0.22,0.28,0.33
		c0.92,1.12,0.92,1.1-0.45,1.54c-0.87,0.28-1.07,1.17-1.57,1.79C104.28,106.92,104.15,107.27,103.74,107.4"/>
	<path class="st1" d="M93.65,111.21c-0.06,0.67-0.14,1.33-0.19,2c-0.04,0.47-0.27,0.56-0.64,0.32c-0.86-0.55-1.71-1.11-2.54-1.7
		c-0.5-0.36-0.3-0.66,0.17-0.9c0.78-0.39,1.56-0.78,2.33-1.19c0.58-0.31,0.88-0.21,0.85,0.5c-0.02,0.32,0,0.64,0,0.96
		C93.63,111.21,93.64,111.21,93.65,111.21"/>
	<path class="st1" d="M113.73,105.31c0.51,0.23,1.28,0.01,1.72,0.64c0.1,0.14-1.45,1.66-1.55,1.55c-0.51-0.52-0.52-1.26-0.71-1.92
		C113.09,105.24,113.4,105.25,113.73,105.31"/>
	<path class="st1" d="M96.04,103c0.29-0.45-0.16-1.13,0.46-1.45c0.2-0.1,1.68,0.95,1.69,1.13c0,0.18-1.45,1.08-1.74,1.05
		C95.93,103.7,96.14,103.28,96.04,103"/>
	<path class="st2" d="M105.15,97.25v2.07h-0.77v-5.1h0.87c0.43,0,0.75,0.03,0.97,0.09c0.22,0.06,0.41,0.17,0.58,0.34
		c0.29,0.29,0.44,0.65,0.44,1.08c0,0.47-0.16,0.84-0.47,1.11c-0.31,0.27-0.73,0.41-1.27,0.41H105.15z M105.15,96.54h0.29
		c0.71,0,1.06-0.27,1.06-0.82c0-0.53-0.36-0.79-1.09-0.79h-0.25V96.54z"/>
	<path class="st2" d="M108.8,97.25v2.07h-0.77v-5.1h0.87c0.43,0,0.75,0.03,0.97,0.09c0.22,0.06,0.41,0.17,0.58,0.34
		c0.29,0.29,0.44,0.65,0.44,1.08c0,0.47-0.16,0.84-0.47,1.11c-0.31,0.27-0.73,0.41-1.26,0.41H108.8z M108.8,96.54h0.29
		c0.71,0,1.06-0.27,1.06-0.82c0-0.53-0.37-0.79-1.09-0.79h-0.25V96.54z"/>
	<polygon class="st2" points="111.51,99.32 112.58,93.84 114.33,97.8 116.15,93.84 117.11,99.32 116.32,99.32 115.83,96.24 
		114.32,99.55 112.85,96.24 112.3,99.32 	"/>
	<path class="st1" d="M122.33,80.9c0.29-0.45-0.16-1.13,0.46-1.45c0.2-0.1,1.68,0.95,1.69,1.13c0,0.18-1.45,1.08-1.74,1.05
		C122.22,81.59,122.43,81.17,122.33,80.9"/>
	<path class="st1" d="M120.46,115.27c-0.52,0.16-1.04,0.33-1.56,0.49c-0.35,0.11-0.49-0.04-0.42-0.38c0.16-0.87,0.32-1.73,0.49-2.6
		c0.06-0.31,0.24-0.3,0.44-0.12c0.66,0.59,1.31,1.18,1.96,1.79c0.28,0.26,0.19,0.44-0.14,0.54c-0.26,0.08-0.52,0.16-0.78,0.25
		C120.46,115.25,120.46,115.26,120.46,115.27"/>
	<path class="st2" d="M51.7,96.95v3.19c-1.56-1.3-3.17-1.95-4.83-1.95c-1.84,0-3.38,0.66-4.64,1.98c-1.26,1.31-1.9,2.91-1.9,4.81
		c0,1.87,0.63,3.45,1.9,4.74c1.26,1.29,2.81,1.93,4.65,1.93c0.95,0,1.75-0.15,2.41-0.46c0.37-0.15,0.75-0.36,1.15-0.62
		c0.4-0.26,0.81-0.58,1.25-0.95v3.25c-1.54,0.87-3.16,1.31-4.86,1.31c-2.55,0-4.73-0.89-6.53-2.67c-1.8-1.8-2.69-3.96-2.69-6.5
		c0-2.27,0.75-4.3,2.25-6.08c1.85-2.18,4.24-3.27,7.18-3.27C48.65,95.65,50.2,96.08,51.7,96.95"/>
	<path class="st2" d="M54.09,104.84c0-2.51,0.92-4.67,2.76-6.47c1.83-1.8,4.04-2.7,6.61-2.7c2.54,0,4.72,0.91,6.54,2.73
		c1.83,1.82,2.74,4,2.74,6.55c0,2.57-0.92,4.74-2.75,6.53c-1.84,1.8-4.06,2.69-6.67,2.69c-2.31,0-4.38-0.8-6.21-2.39
		C55.1,110.01,54.09,107.7,54.09,104.84 M56.81,104.87c0,1.97,0.66,3.59,1.99,4.87c1.32,1.27,2.84,1.91,4.57,1.91
		c1.87,0,3.45-0.65,4.74-1.94c1.29-1.31,1.93-2.91,1.93-4.79c0-1.9-0.64-3.5-1.91-4.79c-1.26-1.29-2.83-1.94-4.69-1.94
		c-1.86,0-3.43,0.65-4.7,1.94C57.45,101.41,56.81,102.99,56.81,104.87"/>
	<path class="st2" d="M78.65,104.9h3.92v1.49h-7.07l3.65-4.42c0.36-0.44,0.66-0.82,0.9-1.15c0.24-0.32,0.43-0.59,0.55-0.81
		c0.26-0.43,0.39-0.81,0.39-1.15c0-0.49-0.17-0.9-0.52-1.23c-0.35-0.33-0.77-0.5-1.28-0.5c-1.06,0-1.67,0.63-1.83,1.89H75.8
		c0.25-2.22,1.37-3.33,3.36-3.33c0.96,0,1.76,0.3,2.41,0.91c0.65,0.61,0.98,1.36,0.98,2.26c0,0.57-0.15,1.13-0.45,1.68
		c-0.15,0.29-0.38,0.63-0.68,1.02c-0.3,0.39-0.67,0.86-1.13,1.39L78.65,104.9z"/>
</g>
<polygon class="st2" points="125.77,117.77 31.83,117.77 31.83,79.23 31.83,51.3 31.83,14.44 29.95,14.44 29.95,51.3 29.95,70.87 
	29.95,79.23 29.95,117.77 29.95,119.47 125.77,119.47 "/>
</svg>
